SplineFontDB: 3.2
FontName: FdSymbolC-Demi
FullName: FdSymbolC-Demi
FamilyName: FdSymbolC
Weight: Demi
Copyright: Copyright (c) 2012, Michael Ummels. This Font Software is licensed under the SIL Open Font License, Version 1.1.
Version: 1.008
ItalicAngle: 0
UnderlinePosition: -100
UnderlineWidth: 50
Ascent: 800
Descent: 200
InvalidEm: 0
LayerCount: 2
Layer: 0 0 "Back" 1
Layer: 1 0 "Fore" 0
OS2Version: 0
OS2_WeightWidthSlopeOnly: 0
OS2_UseTypoMetrics: 0
CreationTime: 1739777133
ModificationTime: 1739777133
OS2TypoAscent: 0
OS2TypoAOffset: 1
OS2TypoDescent: 0
OS2TypoDOffset: 1
OS2TypoLinegap: 0
OS2WinAscent: 0
OS2WinAOffset: 1
OS2WinDescent: 0
OS2WinDOffset: 1
HheadAscent: 0
HheadAOffset: 1
HheadDescent: 0
HheadDOffset: 1
OS2Vendor: 'PfEd'
DEI: 91125
Encoding: Custom
UnicodeInterp: none
NameList: AGL For New Fonts
DisplaySize: -48
AntiAlias: 1
FitToEm: 0
BeginPrivate: 2
BlueValues 31 [-10 0 546 556 707 717 754 764]
OtherBlues 11 [-230 -220]
EndPrivate
BeginChars: 256 238

StartChar: arrowright
Encoding: 0 8594 0
Width: 930
Flags: HW
HStem: 263 74<90 714>
LayerCount: 2
Fore
SplineSet
855 300 m 1
 677 122 l 1
 625 174 l 1
 714 263 l 1
 90 263 l 1
 90 337 l 1
 714 337 l 1
 625 426 l 1
 677 478 l 1
 855 300 l 1
EndSplineSet
EndChar

StartChar: arrowup
Encoding: 1 8593 1
Width: 558
Flags: HW
VStem: 242 74<-75 549>
LayerCount: 2
Fore
SplineSet
279 690 m 1
 457 512 l 1
 405 460 l 1
 316 549 l 1
 316 -75 l 1
 242 -75 l 1
 242 549 l 1
 153 460 l 1
 101 512 l 1
 279 690 l 1
EndSplineSet
EndChar

StartChar: arrowleft
Encoding: 2 8592 2
Width: 930
Flags: HW
HStem: 263 74<216 840>
LayerCount: 2
Fore
SplineSet
75 300 m 1
 253 478 l 1
 305 426 l 1
 216 337 l 1
 840 337 l 1
 840 263 l 1
 216 263 l 1
 305 174 l 1
 253 122 l 1
 75 300 l 1
EndSplineSet
EndChar

StartChar: arrowdown
Encoding: 3 8595 3
Width: 558
Flags: HW
VStem: 242 74<51 675>
LayerCount: 2
Fore
SplineSet
279 -90 m 1
 101 88 l 1
 153 140 l 1
 242 51 l 1
 242 675 l 1
 316 675 l 1
 316 51 l 1
 405 140 l 1
 457 88 l 1
 279 -90 l 1
EndSplineSet
EndChar

StartChar: uni2197
Encoding: 4 8599 4
Width: 978
Flags: HW
HStem: 502 74<513 639>
VStem: 691 74<324 450>
LayerCount: 2
Fore
SplineSet
765 576 m 1
 765 324 l 1
 691 324 l 1
 691 450 l 1
 250 9 l 1
 197 61 l 1
 639 502 l 1
 513 502 l 1
 513 576 l 1
 765 576 l 1
EndSplineSet
EndChar

StartChar: uni2196
Encoding: 5 8598 5
Width: 978
Flags: HW
HStem: 502 74<339 465>
VStem: 213 74<324 450>
LayerCount: 2
Fore
SplineSet
213 576 m 1
 465 576 l 1
 465 502 l 1
 339 502 l 1
 780 61 l 1
 728 9 l 1
 287 450 l 1
 287 324 l 1
 213 324 l 1
 213 576 l 1
EndSplineSet
EndChar

StartChar: uni2199
Encoding: 6 8601 6
Width: 978
Flags: HW
HStem: 24 74<339 465>
VStem: 213 74<150 276>
LayerCount: 2
Fore
SplineSet
213 24 m 1
 213 276 l 1
 287 276 l 1
 287 150 l 1
 728 591 l 1
 780 539 l 1
 339 98 l 1
 465 98 l 1
 465 24 l 1
 213 24 l 1
EndSplineSet
EndChar

StartChar: uni2198
Encoding: 7 8600 7
Width: 978
Flags: HW
HStem: 24 74<513 639>
VStem: 691 74<150 276>
LayerCount: 2
Fore
SplineSet
765 24 m 1
 513 24 l 1
 513 98 l 1
 639 98 l 1
 197 539 l 1
 250 591 l 1
 691 150 l 1
 691 276 l 1
 765 276 l 1
 765 24 l 1
EndSplineSet
EndChar

StartChar: arrowdblright
Encoding: 8 8658 8
Width: 1080
Flags: HW
HStem: 168 74<90 768> 358 74<90 768>
LayerCount: 2
Fore
SplineSet
1005 300 m 1
 782 76 l 1
 729 129 l 1
 768 168 l 1
 90 168 l 1
 90 242 l 1
 843 242 l 1
 901 300 l 1
 843 358 l 1
 90 358 l 1
 90 432 l 1
 768 432 l 1
 729 471 l 1
 782 524 l 1
 1005 300 l 1
EndSplineSet
EndChar

StartChar: arrowdblup
Encoding: 9 8657 9
Width: 649
Flags: HW
HStem: 745 20G<304.91 345>
VStem: 193 74<-150 529> 383 74<-150 528>
LayerCount: 2
Fore
SplineSet
325 765 m 1
 548 542 l 1
 496 489 l 1
 457 528 l 1
 457 -150 l 1
 383 -150 l 1
 383 603 l 1
 325 661 l 1
 267 603 l 1
 267 -150 l 1
 193 -150 l 1
 193 529 l 1
 153 489 l 1
 101 542 l 1
 325 765 l 1
EndSplineSet
EndChar

StartChar: arrowdblleft
Encoding: 10 8656 10
Width: 1080
Flags: HW
HStem: 168 74<312 990> 358 74<312 990>
LayerCount: 2
Fore
SplineSet
75 300 m 1
 298 524 l 1
 351 471 l 1
 312 432 l 1
 990 432 l 1
 990 358 l 1
 237 358 l 1
 179 300 l 1
 237 242 l 1
 990 242 l 1
 990 168 l 1
 312 168 l 1
 351 129 l 1
 298 76 l 1
 75 300 l 1
EndSplineSet
EndChar

StartChar: arrowdbldown
Encoding: 11 8659 11
Width: 649
Flags: HW
VStem: 193 74<71 750> 383 74<72 750>
LayerCount: 2
Fore
SplineSet
325 -165 m 1
 101 58 l 1
 153 111 l 1
 193 71 l 1
 193 750 l 1
 267 750 l 1
 267 -3 l 1
 325 -61 l 1
 383 -3 l 1
 383 750 l 1
 457 750 l 1
 457 72 l 1
 496 111 l 1
 548 58 l 1
 325 -165 l 1
EndSplineSet
EndChar

StartChar: uni21D7
Encoding: 12 8663 12
Width: 1148
Flags: HW
HStem: 555 74<587 643 747 829>
VStem: 829 74<313 369 473 555>
LayerCount: 2
Fore
SplineSet
903 629 m 1
 903 313 l 1
 829 313 l 1
 829 369 l 1
 349 -112 l 1
 297 -59 l 1
 829 473 l 1
 829 555 l 1
 747 555 l 1
 215 23 l 1
 163 75 l 1
 643 555 l 1
 587 555 l 1
 587 629 l 1
 903 629 l 1
EndSplineSet
EndChar

StartChar: uni21D6
Encoding: 13 8662 13
Width: 1148
Flags: HW
HStem: 555 74<319 401 506 562>
VStem: 245 74<313 369 473 555>
LayerCount: 2
Fore
SplineSet
245 629 m 1
 562 629 l 1
 562 555 l 1
 506 555 l 1
 986 75 l 1
 933 23 l 1
 401 555 l 1
 319 555 l 1
 319 473 l 1
 851 -59 l 1
 799 -112 l 1
 319 369 l 1
 319 313 l 1
 245 313 l 1
 245 629 l 1
EndSplineSet
EndChar

StartChar: uni21D9
Encoding: 14 8665 14
Width: 1148
Flags: HW
HStem: -29 74<319 401 506 562> 692 20G<779.042 818.623>
VStem: 245 74<45 127 231 287>
LayerCount: 2
Fore
SplineSet
245 -29 m 1
 245 287 l 1
 319 287 l 1
 319 231 l 1
 799 712 l 1
 851 659 l 1
 319 127 l 1
 319 45 l 1
 401 45 l 1
 933 577 l 1
 986 525 l 1
 506 45 l 1
 562 45 l 1
 562 -29 l 1
 245 -29 l 1
EndSplineSet
EndChar

StartChar: uni21D8
Encoding: 15 8664 15
Width: 1148
Flags: HW
HStem: -29 74<587 643 747 829> 692 20G<329.377 368.958>
VStem: 829 74<45 127 231 287>
LayerCount: 2
Fore
SplineSet
903 -29 m 1
 587 -29 l 1
 587 45 l 1
 643 45 l 1
 163 525 l 1
 215 577 l 1
 747 45 l 1
 829 45 l 1
 829 127 l 1
 297 659 l 1
 349 712 l 1
 829 231 l 1
 829 287 l 1
 903 287 l 1
 903 -29 l 1
EndSplineSet
EndChar

StartChar: arrowboth
Encoding: 16 8596 16
Width: 1080
Flags: HW
HStem: 263 74<216 864>
LayerCount: 2
Fore
SplineSet
75 300 m 1
 253 478 l 1
 305 426 l 1
 216 337 l 1
 864 337 l 1
 775 426 l 1
 827 478 l 1
 1005 300 l 1
 827 122 l 1
 775 174 l 1
 864 263 l 1
 216 263 l 1
 305 174 l 1
 253 122 l 1
 75 300 l 1
EndSplineSet
EndChar

StartChar: arrowupdn
Encoding: 17 8597 17
Width: 558
Flags: HW
HStem: 745 20G<259 299>
VStem: 242 74<-24 624>
LayerCount: 2
Fore
SplineSet
279 -165 m 1
 101 13 l 1
 153 65 l 1
 242 -24 l 1
 242 624 l 1
 153 535 l 1
 101 587 l 1
 279 765 l 1
 457 587 l 1
 405 535 l 1
 316 624 l 1
 316 -24 l 1
 405 65 l 1
 457 13 l 1
 279 -165 l 1
EndSplineSet
EndChar

StartChar: uni2921
Encoding: 18 10529 18
Width: 1084
Flags: HW
HStem: -29 74<339 465> 555 74<619 745>
VStem: 213 74<97 223> 797 74<377 503>
LayerCount: 2
Fore
SplineSet
213 -29 m 1
 213 223 l 1
 287 223 l 1
 287 97 l 1
 745 555 l 1
 619 555 l 1
 619 629 l 1
 871 629 l 1
 871 377 l 1
 797 377 l 1
 797 503 l 1
 339 45 l 1
 465 45 l 1
 465 -29 l 1
 213 -29 l 1
EndSplineSet
EndChar

StartChar: uni2922
Encoding: 19 10530 19
Width: 1084
Flags: HW
HStem: -29 74<619 745> 555 74<339 465>
VStem: 213 74<377 503> 797 74<97 223>
LayerCount: 2
Fore
SplineSet
871 -29 m 1
 619 -29 l 1
 619 45 l 1
 745 45 l 1
 287 503 l 1
 287 377 l 1
 213 377 l 1
 213 629 l 1
 465 629 l 1
 465 555 l 1
 339 555 l 1
 797 97 l 1
 797 223 l 1
 871 223 l 1
 871 -29 l 1
EndSplineSet
EndChar

StartChar: arrowdblboth
Encoding: 20 8660 20
Width: 1230
Flags: HW
HStem: 168 74<312 918> 358 74<312 918>
LayerCount: 2
Fore
SplineSet
993 358 m 1
 237 358 l 1
 179 300 l 1
 237 242 l 1
 993 242 l 1
 1051 300 l 1
 993 358 l 1
75 300 m 1
 298 524 l 1
 351 471 l 1
 312 432 l 1
 918 432 l 1
 879 471 l 1
 932 524 l 1
 1155 300 l 1
 932 76 l 1
 879 129 l 1
 918 168 l 1
 312 168 l 1
 351 129 l 1
 298 76 l 1
 75 300 l 1
EndSplineSet
EndChar

StartChar: uni21D5
Encoding: 21 8661 21
Width: 649
Flags: HW
VStem: 193 74<-4 604> 383 74<-3 603>
LayerCount: 2
Fore
SplineSet
267 678 m 1
 267 -78 l 1
 325 -136 l 1
 383 -78 l 1
 383 678 l 1
 325 736 l 1
 267 678 l 1
325 -240 m 1
 101 -17 l 1
 153 36 l 1
 193 -4 l 1
 193 604 l 1
 153 564 l 1
 101 617 l 1
 325 840 l 1
 548 617 l 1
 496 564 l 1
 457 603 l 1
 457 -3 l 1
 496 36 l 1
 548 -17 l 1
 325 -240 l 1
EndSplineSet
EndChar

StartChar: sym030
Encoding: 22 -1 22
Width: 1254
Flags: HW
HStem: -82 74<319 401 506 562> 608 74<693 749 853 935>
VStem: 245 74<-8 74 178 234> 935 74<366 422 526 608>
LayerCount: 2
Fore
SplineSet
853 608 m 1
 319 74 l 1
 319 -8 l 1
 401 -8 l 1
 935 526 l 1
 935 608 l 1
 853 608 l 1
245 -82 m 1
 245 234 l 1
 319 234 l 1
 319 178 l 1
 749 608 l 1
 693 608 l 1
 693 682 l 1
 1009 682 l 1
 1009 366 l 1
 935 366 l 1
 935 422 l 1
 506 -8 l 1
 562 -8 l 1
 562 -82 l 1
 245 -82 l 1
EndSplineSet
EndChar

StartChar: sym031
Encoding: 23 -1 23
Width: 1254
Flags: HW
HStem: -82 74<693 749 853 935> 608 74<319 401 506 562>
VStem: 245 74<366 422 526 608> 935 74<-8 74 178 234>
LayerCount: 2
Fore
SplineSet
319 526 m 1
 853 -8 l 1
 935 -8 l 1
 935 74 l 1
 401 608 l 1
 319 608 l 1
 319 526 l 1
1009 -82 m 1
 693 -82 l 1
 693 -8 l 1
 749 -8 l 1
 319 422 l 1
 319 366 l 1
 245 366 l 1
 245 682 l 1
 562 682 l 1
 562 608 l 1
 506 608 l 1
 935 178 l 1
 935 234 l 1
 1009 234 l 1
 1009 -82 l 1
EndSplineSet
EndChar

StartChar: uni21A0
Encoding: 24 8608 24
Width: 1118
Flags: HW
HStem: 263 74<90 667 771 901>
LayerCount: 2
Fore
SplineSet
1043 300 m 1
 865 122 l 1
 812 174 l 1
 901 263 l 1
 771 263 l 1
 630 122 l 1
 578 174 l 1
 667 263 l 1
 90 263 l 1
 90 337 l 1
 667 337 l 1
 578 426 l 1
 630 478 l 1
 771 337 l 1
 901 337 l 1
 812 426 l 1
 865 478 l 1
 1043 300 l 1
EndSplineSet
EndChar

StartChar: uni219F
Encoding: 25 8607 25
Width: 558
Flags: HW
HStem: 554 21G<133 173.227 384.773 425>
VStem: 242 74<-169 408 513 642>
LayerCount: 2
Fore
SplineSet
279 784 m 1
 457 606 l 1
 405 554 l 1
 316 642 l 1
 316 513 l 1
 457 372 l 1
 405 319 l 1
 316 408 l 1
 316 -169 l 1
 242 -169 l 1
 242 408 l 1
 153 319 l 1
 101 372 l 1
 242 513 l 1
 242 642 l 1
 153 554 l 1
 101 606 l 1
 279 784 l 1
EndSplineSet
EndChar

StartChar: uni219E
Encoding: 26 8606 26
Width: 1118
Flags: HW
HStem: 263 74<216 346 451 1028>
LayerCount: 2
Fore
SplineSet
75 300 m 1
 253 478 l 1
 305 426 l 1
 216 337 l 1
 346 337 l 1
 487 478 l 1
 540 426 l 1
 451 337 l 1
 1028 337 l 1
 1028 263 l 1
 451 263 l 1
 540 174 l 1
 487 122 l 1
 346 263 l 1
 216 263 l 1
 305 174 l 1
 253 122 l 1
 75 300 l 1
EndSplineSet
EndChar

StartChar: uni21A1
Encoding: 27 8609 27
Width: 558
Flags: HW
VStem: 242 74<-42 87 192 769>
LayerCount: 2
Fore
SplineSet
279 -184 m 1
 101 -6 l 1
 153 46 l 1
 242 -42 l 1
 242 87 l 1
 101 228 l 1
 153 281 l 1
 242 192 l 1
 242 769 l 1
 316 769 l 1
 316 192 l 1
 405 281 l 1
 457 228 l 1
 316 87 l 1
 316 -42 l 1
 405 46 l 1
 457 -6 l 1
 279 -184 l 1
EndSplineSet
EndChar

StartChar: sym033
Encoding: 28 -1 28
Width: 1110
Flags: HW
HStem: 403 74<480 606> 568 74<645 771>
VStem: 658 74<225 350> 823 74<390 515>
LayerCount: 2
Fore
SplineSet
897 642 m 1
 897 390 l 1
 823 390 l 1
 823 515 l 1
 732 424 l 1
 732 225 l 1
 658 225 l 1
 658 350 l 1
 250 -58 l 1
 197 -5 l 1
 606 403 l 1
 480 403 l 1
 480 477 l 1
 680 477 l 1
 771 568 l 1
 645 568 l 1
 645 642 l 1
 897 642 l 1
EndSplineSet
EndChar

StartChar: sym032
Encoding: 29 -1 29
Width: 1110
Flags: HW
HStem: 403 74<504 630> 568 74<339 465>
VStem: 213 74<390 516> 379 74<225 350>
LayerCount: 2
Fore
SplineSet
213 642 m 1
 465 642 l 1
 465 568 l 1
 339 568 l 1
 430 477 l 1
 630 477 l 1
 630 403 l 1
 504 403 l 1
 913 -5 l 1
 860 -58 l 1
 453 350 l 1
 453 225 l 1
 379 225 l 1
 379 424 l 1
 287 516 l 1
 287 390 l 1
 213 390 l 1
 213 642 l 1
EndSplineSet
EndChar

StartChar: sym035
Encoding: 30 -1 30
Width: 1110
Flags: HW
HStem: -42 74<339 465> 123 74<504 630>
VStem: 213 74<84 210> 379 74<250 375>
LayerCount: 2
Fore
SplineSet
213 -42 m 1
 213 210 l 1
 287 210 l 1
 287 84 l 1
 379 176 l 1
 379 375 l 1
 453 375 l 1
 453 250 l 1
 860 658 l 1
 913 605 l 1
 504 197 l 1
 630 197 l 1
 630 123 l 1
 430 123 l 1
 339 32 l 1
 465 32 l 1
 465 -42 l 1
 213 -42 l 1
EndSplineSet
EndChar

StartChar: sym034
Encoding: 31 -1 31
Width: 1110
Flags: HW
HStem: -42 74<645 771> 123 74<480 606>
VStem: 658 74<250 375> 823 74<85 210>
LayerCount: 2
Fore
SplineSet
897 -42 m 1
 645 -42 l 1
 645 32 l 1
 771 32 l 1
 680 123 l 1
 480 123 l 1
 480 197 l 1
 606 197 l 1
 197 605 l 1
 250 658 l 1
 658 250 l 1
 658 375 l 1
 732 375 l 1
 732 176 l 1
 823 85 l 1
 823 210 l 1
 897 210 l 1
 897 -42 l 1
EndSplineSet
EndChar

StartChar: uni21A3
Encoding: 32 8611 32
Width: 930
Flags: HW
HStem: 263 74<294 714>
LayerCount: 2
Fore
SplineSet
855 300 m 1
 677 122 l 1
 625 174 l 1
 714 263 l 1
 294 263 l 1
 153 122 l 1
 101 174 l 1
 227 300 l 1
 101 426 l 1
 153 478 l 1
 294 337 l 1
 714 337 l 1
 625 426 l 1
 677 478 l 1
 855 300 l 1
EndSplineSet
EndChar

StartChar: sym036
Encoding: 33 -1 33
Width: 558
Flags: HW
VStem: 242 74<129 549>
LayerCount: 2
Fore
SplineSet
279 690 m 1
 457 512 l 1
 405 460 l 1
 316 549 l 1
 316 129 l 1
 457 -12 l 1
 405 -64 l 1
 279 62 l 1
 153 -64 l 1
 101 -12 l 1
 242 129 l 1
 242 549 l 1
 153 460 l 1
 101 512 l 1
 279 690 l 1
EndSplineSet
EndChar

StartChar: uni21A2
Encoding: 34 8610 34
Width: 930
Flags: HW
HStem: 263 74<216 636>
LayerCount: 2
Fore
SplineSet
75 300 m 1
 253 478 l 1
 305 426 l 1
 216 337 l 1
 636 337 l 1
 777 478 l 1
 829 426 l 1
 703 300 l 1
 829 174 l 1
 777 122 l 1
 636 263 l 1
 216 263 l 1
 305 174 l 1
 253 122 l 1
 75 300 l 1
EndSplineSet
EndChar

StartChar: sym037
Encoding: 35 -1 35
Width: 558
Flags: HW
VStem: 242 74<51 471>
LayerCount: 2
Fore
SplineSet
279 -90 m 1
 101 88 l 1
 153 140 l 1
 242 51 l 1
 242 471 l 1
 101 612 l 1
 153 664 l 1
 279 538 l 1
 405 664 l 1
 457 612 l 1
 316 471 l 1
 316 51 l 1
 405 140 l 1
 457 88 l 1
 279 -90 l 1
EndSplineSet
EndChar

StartChar: sym039
Encoding: 36 -1 36
Width: 978
Flags: HW
HStem: 131 74<142 320> 502 74<513 639>
VStem: 320 74<-46 131> 691 74<324 450>
LayerCount: 2
Fore
SplineSet
765 576 m 1
 765 324 l 1
 691 324 l 1
 691 450 l 1
 394 153 l 1
 394 -46 l 1
 320 -46 l 1
 320 131 l 1
 142 131 l 1
 142 205 l 1
 341 205 l 1
 639 502 l 1
 513 502 l 1
 513 576 l 1
 765 576 l 1
EndSplineSet
EndChar

StartChar: sym038
Encoding: 37 -1 37
Width: 978
Flags: HW
HStem: 131 74<657 835> 502 74<339 465>
VStem: 213 74<324 450> 583 74<-46 131>
LayerCount: 2
Fore
SplineSet
213 576 m 1
 465 576 l 1
 465 502 l 1
 339 502 l 1
 637 205 l 1
 835 205 l 1
 835 131 l 1
 657 131 l 1
 657 -46 l 1
 583 -46 l 1
 583 153 l 1
 287 450 l 1
 287 324 l 1
 213 324 l 1
 213 576 l 1
EndSplineSet
EndChar

StartChar: sym03B
Encoding: 38 -1 38
Width: 978
Flags: HW
HStem: 24 74<339 465> 395 74<657 835>
VStem: 213 74<150 276> 583 74<469 646>
LayerCount: 2
Fore
SplineSet
213 24 m 1
 213 276 l 1
 287 276 l 1
 287 150 l 1
 583 447 l 1
 583 646 l 1
 657 646 l 1
 657 469 l 1
 835 469 l 1
 835 395 l 1
 637 395 l 1
 339 98 l 1
 465 98 l 1
 465 24 l 1
 213 24 l 1
EndSplineSet
EndChar

StartChar: sym03A
Encoding: 39 -1 39
Width: 978
Flags: HW
HStem: 24 74<513 639> 395 74<142 320>
VStem: 320 74<469 646> 691 74<150 276>
LayerCount: 2
Fore
SplineSet
765 24 m 1
 513 24 l 1
 513 98 l 1
 639 98 l 1
 341 395 l 1
 142 395 l 1
 142 469 l 1
 320 469 l 1
 320 646 l 1
 394 646 l 1
 394 447 l 1
 691 150 l 1
 691 276 l 1
 765 276 l 1
 765 24 l 1
EndSplineSet
EndChar

StartChar: uni21A6
Encoding: 40 8614 40
Width: 930
Flags: HW
HStem: 263 74<164 714>
VStem: 90 74<111 263 337 489>
LayerCount: 2
Fore
SplineSet
855 300 m 1
 677 122 l 1
 625 174 l 1
 714 263 l 1
 164 263 l 1
 164 111 l 1
 90 111 l 1
 90 489 l 1
 164 489 l 1
 164 337 l 1
 714 337 l 1
 625 426 l 1
 677 478 l 1
 855 300 l 1
EndSplineSet
EndChar

StartChar: uni21A5
Encoding: 41 8613 41
Width: 558
Flags: HW
HStem: -75 74<90 242 316 468>
VStem: 242 74<-1 549>
LayerCount: 2
Fore
SplineSet
279 690 m 1
 457 512 l 1
 405 460 l 1
 316 549 l 1
 316 -1 l 1
 468 -1 l 1
 468 -75 l 1
 90 -75 l 1
 90 -1 l 1
 242 -1 l 1
 242 549 l 1
 153 460 l 1
 101 512 l 1
 279 690 l 1
EndSplineSet
EndChar

StartChar: uni21A4
Encoding: 42 8612 42
Width: 930
Flags: HW
HStem: 263 74<216 766>
VStem: 766 74<111 263 337 489>
LayerCount: 2
Fore
SplineSet
75 300 m 1
 253 478 l 1
 305 426 l 1
 216 337 l 1
 766 337 l 1
 766 489 l 1
 840 489 l 1
 840 111 l 1
 766 111 l 1
 766 263 l 1
 216 263 l 1
 305 174 l 1
 253 122 l 1
 75 300 l 1
EndSplineSet
EndChar

StartChar: uni21A7
Encoding: 43 8615 43
Width: 558
Flags: HW
HStem: 601 74<90 242 316 468>
VStem: 242 74<51 601>
LayerCount: 2
Fore
SplineSet
279 -90 m 1
 101 88 l 1
 153 140 l 1
 242 51 l 1
 242 601 l 1
 90 601 l 1
 90 675 l 1
 468 675 l 1
 468 601 l 1
 316 601 l 1
 316 51 l 1
 405 140 l 1
 457 88 l 1
 279 -90 l 1
EndSplineSet
EndChar

StartChar: uni2907
Encoding: 44 10503 44
Width: 1080
Flags: HW
HStem: 168 74<164 768> 358 74<164 768>
VStem: 90 74<65 168 242 358 432 535>
LayerCount: 2
Fore
SplineSet
164 358 m 1
 164 242 l 1
 843 242 l 1
 901 300 l 1
 843 358 l 1
 164 358 l 1
1005 300 m 1
 782 76 l 1
 729 129 l 1
 768 168 l 1
 164 168 l 1
 164 65 l 1
 90 65 l 1
 90 535 l 1
 164 535 l 1
 164 432 l 1
 768 432 l 1
 729 471 l 1
 782 524 l 1
 1005 300 l 1
EndSplineSet
EndChar

StartChar: sym03C
Encoding: 45 -1 45
Width: 649
Flags: HW
HStem: -150 74<90 193 267 383 457 559> 745 20G<304.91 345>
VStem: 193 74<-76 529> 383 74<-76 528>
LayerCount: 2
Fore
SplineSet
267 -76 m 1
 383 -76 l 1
 383 603 l 1
 325 661 l 1
 267 603 l 1
 267 -76 l 1
325 765 m 1
 548 542 l 1
 496 489 l 1
 457 528 l 1
 457 -76 l 1
 559 -76 l 1
 559 -150 l 1
 90 -150 l 1
 90 -76 l 1
 193 -76 l 1
 193 529 l 1
 153 489 l 1
 101 542 l 1
 325 765 l 1
EndSplineSet
EndChar

StartChar: uni2906
Encoding: 46 10502 46
Width: 1080
Flags: HW
HStem: 168 74<312 916> 358 74<312 916>
VStem: 916 74<65 168 242 358 432 535>
LayerCount: 2
Fore
SplineSet
916 242 m 1
 916 358 l 1
 237 358 l 1
 179 300 l 1
 237 242 l 1
 916 242 l 1
75 300 m 1
 298 524 l 1
 351 471 l 1
 312 432 l 1
 916 432 l 1
 916 535 l 1
 990 535 l 1
 990 65 l 1
 916 65 l 1
 916 168 l 1
 312 168 l 1
 351 129 l 1
 298 76 l 1
 75 300 l 1
EndSplineSet
EndChar

StartChar: sym03D
Encoding: 47 -1 47
Width: 649
Flags: HW
HStem: 676 74<90 193 267 383 457 559>
VStem: 193 74<71 676> 383 74<72 676>
LayerCount: 2
Fore
SplineSet
383 676 m 1
 267 676 l 1
 267 -3 l 1
 325 -61 l 1
 383 -3 l 1
 383 676 l 1
325 -165 m 1
 101 58 l 1
 153 111 l 1
 193 71 l 1
 193 676 l 1
 90 676 l 1
 90 750 l 1
 559 750 l 1
 559 676 l 1
 457 676 l 1
 457 72 l 1
 496 111 l 1
 548 58 l 1
 325 -165 l 1
EndSplineSet
EndChar

StartChar: uni21AA
Encoding: 48 8618 48
Width: 930
Flags: HW
HStem: 263 74<169.549 714> 415 74<169.549 240>
VStem: 90 74<341.658 410.342>
LayerCount: 2
Fore
SplineSet
240 415 m 1
 203 415 l 2
 181 415 164 398 164 376 c 0
 164 354 181 337 203 337 c 2
 714 337 l 1
 625 426 l 1
 677 478 l 1
 855 300 l 1
 677 122 l 1
 625 174 l 1
 714 263 l 1
 203 263 l 2
 141 263 90 314 90 376 c 0
 90 438 141 489 203 489 c 2
 240 489 l 1
 240 415 l 1
EndSplineSet
EndChar

StartChar: sym03E
Encoding: 49 -1 49
Width: 558
Flags: HW
HStem: -75 74<168.658 237.342>
VStem: 90 74<4.54883 75> 242 74<4.54883 549>
LayerCount: 2
Fore
SplineSet
164 75 m 1
 164 38 l 2
 164 16 181 -1 203 -1 c 0
 225 -1 242 16 242 38 c 2
 242 549 l 1
 153 460 l 1
 101 512 l 1
 279 690 l 1
 457 512 l 1
 405 460 l 1
 316 549 l 1
 316 38 l 2
 316 -24 265 -75 203 -75 c 0
 141 -75 90 -24 90 38 c 2
 90 75 l 1
 164 75 l 1
EndSplineSet
EndChar

StartChar: uni21A9.alt
Encoding: 50 -1 50
Width: 930
Flags: HW
HStem: 111 74<690 760.451> 263 74<216 760.451>
VStem: 766 74<189.658 258.342>
LayerCount: 2
Fore
SplineSet
690 185 m 1
 727 185 l 2
 749 185 766 202 766 224 c 0
 766 246 749 263 727 263 c 2
 216 263 l 1
 305 174 l 1
 253 122 l 1
 75 300 l 1
 253 478 l 1
 305 426 l 1
 216 337 l 1
 727 337 l 2
 789 337 840 286 840 224 c 0
 840 162 789 111 727 111 c 2
 690 111 l 1
 690 185 l 1
EndSplineSet
EndChar

StartChar: sym03F.alt
Encoding: 51 -1 51
Width: 558
Flags: HW
HStem: 601 74<320.658 389.342>
VStem: 242 74<51 595.451> 394 74<525 595.451>
LayerCount: 2
Fore
SplineSet
394 525 m 1
 394 562 l 2
 394 584 377 601 355 601 c 0
 333 601 316 584 316 562 c 2
 316 51 l 1
 405 140 l 1
 457 88 l 1
 279 -90 l 1
 101 88 l 1
 153 140 l 1
 242 51 l 1
 242 562 l 2
 242 624 293 675 355 675 c 0
 417 675 468 624 468 562 c 2
 468 525 l 1
 394 525 l 1
EndSplineSet
EndChar

StartChar: uni2924.alt
Encoding: 52 -1 52
Width: 978
Flags: HW
HStem: 55 75<215.461 285.066> 502 74<513 639>
VStem: 137 74<134.062 206.87> 691 74<324 450>
LayerCount: 2
Fore
SplineSet
250 55 m 0
 188 55 137 106 137 168 c 0
 137 197 148 226 170 248 c 2
 196 275 l 1
 248 222 l 1
 222 196 l 2
 214 188 211 178 211 168 c 0
 211 146 228 130 250 130 c 0
 260 130 269 133 277 141 c 2
 639 502 l 1
 513 502 l 1
 513 576 l 1
 765 576 l 1
 765 324 l 1
 691 324 l 1
 691 450 l 1
 330 89 l 2
 308 67 279 55 250 55 c 0
EndSplineSet
EndChar

StartChar: uni2923
Encoding: 53 10531 53
Width: 978
Flags: HW
HStem: -52 74<582.481 654.228> 502 74<339 465>
VStem: 213 74<324 450> 659 74<26.5576 97.2056>
LayerCount: 2
Fore
SplineSet
733 61 m 0
 733 -2 682 -52 620 -52 c 0
 591 -52 562 -41 540 -19 c 2
 514 7 l 1
 567 60 l 1
 593 33 l 2
 601 25 610 22 620 22 c 0
 643 22 659 40 659 61 c 0
 659 71 656 81 648 89 c 2
 287 450 l 1
 287 324 l 1
 213 324 l 1
 213 576 l 1
 465 576 l 1
 465 502 l 1
 339 502 l 1
 700 141 l 2
 722 119 733 90 733 61 c 0
EndSplineSet
EndChar

StartChar: uni2926.alt
Encoding: 54 -1 54
Width: 978
Flags: HW
HStem: 24 74<339 465> 470 75<691.794 762.342>
VStem: 213 74<150 276> 767 74<394.387 465.853>
LayerCount: 2
Fore
SplineSet
728 545 m 0
 790 545 841 494 841 432 c 0
 841 403 830 374 808 352 c 2
 782 325 l 1
 729 378 l 1
 755 404 l 2
 763 412 767 422 767 432 c 0
 767 453 750 470 728 470 c 0
 718 470 708 467 700 459 c 2
 339 98 l 1
 465 98 l 1
 465 24 l 1
 213 24 l 1
 213 276 l 1
 287 276 l 1
 287 150 l 1
 648 511 l 2
 670 533 699 545 728 545 c 0
EndSplineSet
EndChar

StartChar: uni2925
Encoding: 55 10533 55
Width: 978
Flags: HW
HStem: 24 74<513 639> 578 74<323.064 395.019>
VStem: 244 74<503.442 573.321> 691 74<150 276>
LayerCount: 2
Fore
SplineSet
244 539 m 0
 244 603 296 652 357 652 c 0
 386 652 415 641 437 619 c 2
 463 593 l 1
 411 540 l 1
 385 567 l 2
 377 575 368 578 358 578 c 0
 335 578 318 559 318 539 c 0
 318 529 322 519 330 511 c 2
 691 150 l 1
 691 276 l 1
 765 276 l 1
 765 24 l 1
 513 24 l 1
 513 98 l 1
 639 98 l 1
 277 459 l 2
 255 481 244 510 244 539 c 0
EndSplineSet
EndChar

StartChar: uni21AA.alt
Encoding: 56 -1 56
Width: 930
Flags: HW
HStem: 111 74<169.549 240> 263 74<169.549 714>
VStem: 90 74<189.658 258.342>
LayerCount: 2
Fore
SplineSet
240 111 m 1
 203 111 l 2
 141 111 90 162 90 224 c 0
 90 286 141 337 203 337 c 2
 714 337 l 1
 625 426 l 1
 677 478 l 1
 855 300 l 1
 677 122 l 1
 625 174 l 1
 714 263 l 1
 203 263 l 2
 181 263 164 246 164 224 c 0
 164 202 181 185 203 185 c 2
 240 185 l 1
 240 111 l 1
EndSplineSet
EndChar

StartChar: sym03E.alt
Encoding: 57 -1 57
Width: 558
Flags: HW
HStem: -75 74<320.658 389.342>
VStem: 242 74<4.54883 549> 394 74<4.54883 75>
LayerCount: 2
Fore
SplineSet
468 75 m 1
 468 38 l 2
 468 -24 417 -75 355 -75 c 0
 293 -75 242 -24 242 38 c 2
 242 549 l 1
 153 460 l 1
 101 512 l 1
 279 690 l 1
 457 512 l 1
 405 460 l 1
 316 549 l 1
 316 38 l 2
 316 16 333 -1 355 -1 c 0
 377 -1 394 16 394 38 c 2
 394 75 l 1
 468 75 l 1
EndSplineSet
EndChar

StartChar: uni21A9
Encoding: 58 8617 58
Width: 930
Flags: HW
HStem: 263 74<216 760.451> 415 74<690 760.451>
VStem: 766 74<341.658 410.342>
LayerCount: 2
Fore
SplineSet
690 489 m 1
 727 489 l 2
 789 489 840 438 840 376 c 0
 840 314 789 263 727 263 c 2
 216 263 l 1
 305 174 l 1
 253 122 l 1
 75 300 l 1
 253 478 l 1
 305 426 l 1
 216 337 l 1
 727 337 l 2
 749 337 766 354 766 376 c 0
 766 398 749 415 727 415 c 2
 690 415 l 1
 690 489 l 1
EndSplineSet
EndChar

StartChar: sym03F
Encoding: 59 -1 59
Width: 558
Flags: HW
HStem: 601 74<168.658 237.342>
VStem: 90 74<525 595.451> 242 74<51 595.451>
LayerCount: 2
Fore
SplineSet
90 525 m 1
 90 562 l 2
 90 624 141 675 203 675 c 0
 265 675 316 624 316 562 c 2
 316 51 l 1
 405 140 l 1
 457 88 l 1
 279 -90 l 1
 101 88 l 1
 153 140 l 1
 242 51 l 1
 242 562 l 2
 242 584 225 601 203 601 c 0
 181 601 164 584 164 562 c 2
 164 525 l 1
 90 525 l 1
EndSplineSet
EndChar

StartChar: uni2924
Encoding: 60 10532 60
Width: 978
Flags: HW
HStem: -52 74<323.064 395.019> 502 74<513 639>
VStem: 244 74<26.6794 96.5585> 691 74<324 450>
LayerCount: 2
Fore
SplineSet
318 61 m 0
 318 41 335 22 358 22 c 0
 368 22 377 25 385 33 c 2
 411 60 l 1
 463 7 l 1
 437 -19 l 2
 415 -41 386 -52 357 -52 c 0
 296 -52 244 -3 244 61 c 0
 244 90 255 119 277 141 c 2
 639 502 l 1
 513 502 l 1
 513 576 l 1
 765 576 l 1
 765 324 l 1
 691 324 l 1
 691 450 l 1
 330 89 l 2
 322 81 318 71 318 61 c 0
EndSplineSet
EndChar

StartChar: uni2923.alt
Encoding: 61 -1 61
Width: 978
Flags: HW
HStem: 55 75<691.794 762.342> 502 74<339 465>
VStem: 213 74<324 450> 767 74<134.147 205.613>
LayerCount: 2
Fore
SplineSet
728 130 m 0
 750 130 767 147 767 168 c 0
 767 178 763 188 755 196 c 2
 729 222 l 1
 782 275 l 1
 808 248 l 2
 830 226 841 197 841 168 c 0
 841 106 790 55 728 55 c 0
 699 55 670 67 648 89 c 2
 287 450 l 1
 287 324 l 1
 213 324 l 1
 213 576 l 1
 465 576 l 1
 465 502 l 1
 339 502 l 1
 700 141 l 2
 708 133 718 130 728 130 c 0
EndSplineSet
EndChar

StartChar: uni2926
Encoding: 62 10534 62
Width: 978
Flags: HW
HStem: 24 74<339 465> 578 74<582.481 654.228>
VStem: 213 74<150 276> 659 74<502.794 573.442>
LayerCount: 2
Fore
SplineSet
659 539 m 0
 659 560 643 578 620 578 c 0
 610 578 601 575 593 567 c 2
 567 540 l 1
 514 593 l 1
 540 619 l 2
 562 641 591 652 620 652 c 0
 682 652 733 602 733 539 c 0
 733 510 722 481 700 459 c 2
 339 98 l 1
 465 98 l 1
 465 24 l 1
 213 24 l 1
 213 276 l 1
 287 276 l 1
 287 150 l 1
 648 511 l 2
 656 519 659 529 659 539 c 0
EndSplineSet
EndChar

StartChar: uni2925.alt
Encoding: 63 -1 63
Width: 978
Flags: HW
HStem: 24 74<513 639> 470 75<215.461 285.066>
VStem: 137 74<393.13 465.938> 691 74<150 276>
LayerCount: 2
Fore
SplineSet
250 470 m 0
 228 470 211 454 211 432 c 0
 211 422 214 412 222 404 c 2
 248 378 l 1
 196 325 l 1
 170 352 l 2
 148 374 137 403 137 432 c 0
 137 494 188 545 250 545 c 0
 279 545 308 533 330 511 c 2
 691 150 l 1
 691 276 l 1
 765 276 l 1
 765 24 l 1
 513 24 l 1
 513 98 l 1
 639 98 l 1
 277 459 l 2
 269 467 260 470 250 470 c 0
EndSplineSet
EndChar

StartChar: uni21C0
Encoding: 64 8640 64
Width: 930
Flags: HW
HStem: 263 74<90 714>
LayerCount: 2
Fore
SplineSet
855 300 m 1
 845 263 l 1
 90 263 l 1
 90 337 l 1
 714 337 l 1
 606 444 l 1
 659 497 l 1
 855 300 l 1
EndSplineSet
EndChar

StartChar: uni21BF
Encoding: 65 8639 65
Width: 558
Flags: HW
VStem: 242 74<-75 549>
LayerCount: 2
Fore
SplineSet
279 690 m 1
 316 680 l 1
 316 -75 l 1
 242 -75 l 1
 242 549 l 1
 135 441 l 1
 82 494 l 1
 279 690 l 1
EndSplineSet
EndChar

StartChar: uni21BD
Encoding: 66 8637 66
Width: 930
Flags: HW
HStem: 263 74<216 840>
LayerCount: 2
Fore
SplineSet
75 300 m 1
 85 337 l 1
 840 337 l 1
 840 263 l 1
 216 263 l 1
 324 156 l 1
 271 103 l 1
 75 300 l 1
EndSplineSet
EndChar

StartChar: uni21C2
Encoding: 67 8642 67
Width: 558
Flags: HW
VStem: 242 74<51 675>
LayerCount: 2
Fore
SplineSet
279 -90 m 1
 242 -80 l 1
 242 675 l 1
 316 675 l 1
 316 51 l 1
 423 159 l 1
 476 106 l 1
 279 -90 l 1
EndSplineSet
EndChar

StartChar: sym041
Encoding: 68 -1 68
Width: 978
Flags: HW
HStem: 502 74<487 639>
LayerCount: 2
Fore
SplineSet
765 576 m 1
 784 543 l 1
 250 9 l 1
 197 61 l 1
 639 502 l 1
 487 502 l 1
 487 576 l 1
 765 576 l 1
EndSplineSet
EndChar

StartChar: sym040
Encoding: 69 -1 69
Width: 978
Flags: HW
VStem: 213 74<298 450>
LayerCount: 2
Fore
SplineSet
213 576 m 1
 246 595 l 1
 780 61 l 1
 728 9 l 1
 287 450 l 1
 287 298 l 1
 213 298 l 1
 213 576 l 1
EndSplineSet
EndChar

StartChar: sym043
Encoding: 70 -1 70
Width: 978
Flags: HW
HStem: 24 74<234 235 339 491>
LayerCount: 2
Fore
SplineSet
213 24 m 1
 194 57 l 1
 234 98 l 1
 235 98 l 1
 728 591 l 1
 780 539 l 1
 339 98 l 1
 491 98 l 1
 491 24 l 1
 213 24 l 1
EndSplineSet
EndChar

StartChar: sym042
Encoding: 71 -1 71
Width: 978
Flags: HW
VStem: 691 74<150 302>
LayerCount: 2
Fore
SplineSet
765 24 m 1
 732 5 l 1
 554 183 375 361 197 539 c 1
 250 591 l 1
 691 150 l 1
 691 302 l 1
 765 302 l 1
 765 24 l 1
EndSplineSet
EndChar

StartChar: uni21C1
Encoding: 72 8641 72
Width: 930
Flags: HW
HStem: 263 74<90 714>
LayerCount: 2
Fore
SplineSet
855 300 m 1
 659 103 l 1
 606 156 l 1
 714 263 l 1
 90 263 l 1
 90 337 l 1
 845 337 l 1
 855 300 l 1
EndSplineSet
EndChar

StartChar: uni21BE
Encoding: 73 8638 73
Width: 558
Flags: HW
VStem: 242 74<-75 549>
LayerCount: 2
Fore
SplineSet
279 690 m 1
 476 494 l 1
 423 441 l 1
 316 549 l 1
 316 -75 l 1
 242 -75 l 1
 242 680 l 1
 279 690 l 1
EndSplineSet
EndChar

StartChar: uni21BC
Encoding: 74 8636 74
Width: 930
Flags: HW
HStem: 263 74<216 840>
LayerCount: 2
Fore
SplineSet
75 300 m 1
 271 497 l 1
 324 444 l 1
 216 337 l 1
 840 337 l 1
 840 263 l 1
 85 263 l 1
 75 300 l 1
EndSplineSet
EndChar

StartChar: uni21C3
Encoding: 75 8643 75
Width: 558
Flags: HW
VStem: 242 74<51 675>
LayerCount: 2
Fore
SplineSet
279 -90 m 1
 82 106 l 1
 135 159 l 1
 242 51 l 1
 242 675 l 1
 316 675 l 1
 316 -80 l 1
 279 -90 l 1
EndSplineSet
EndChar

StartChar: sym045
Encoding: 76 -1 76
Width: 978
Flags: HW
VStem: 691 74<298 450>
LayerCount: 2
Fore
SplineSet
765 576 m 1
 765 298 l 1
 691 298 l 1
 691 450 l 1
 250 9 l 1
 197 61 l 1
 375 239 554 417 732 595 c 1
 765 576 l 1
EndSplineSet
EndChar

StartChar: sym044
Encoding: 77 -1 77
Width: 978
Flags: HW
HStem: 502 74<234 235 339 491>
LayerCount: 2
Fore
SplineSet
213 576 m 1
 491 576 l 1
 491 502 l 1
 339 502 l 1
 780 61 l 1
 728 9 l 1
 235 502 l 1
 234 502 l 1
 194 543 l 1
 213 576 l 1
EndSplineSet
EndChar

StartChar: sym047
Encoding: 78 -1 78
Width: 978
Flags: HW
VStem: 213 74<150 302>
LayerCount: 2
Fore
SplineSet
213 24 m 1
 213 302 l 1
 287 302 l 1
 287 150 l 1
 728 591 l 1
 780 539 l 1
 246 5 l 1
 213 24 l 1
EndSplineSet
EndChar

StartChar: sym046
Encoding: 79 -1 79
Width: 978
Flags: HW
HStem: 24 74<487 639>
LayerCount: 2
Fore
SplineSet
765 24 m 1
 487 24 l 1
 487 98 l 1
 639 98 l 1
 197 539 l 1
 250 591 l 1
 784 57 l 1
 765 24 l 1
EndSplineSet
EndChar

StartChar: uni294B
Encoding: 80 10571 80
Width: 930
Flags: HW
HStem: 263 74<216 714>
LayerCount: 2
Fore
SplineSet
75 300 m 1
 85 337 l 1
 714 337 l 1
 606 444 l 1
 659 497 l 1
 855 300 l 1
 845 263 l 1
 216 263 l 1
 324 156 l 1
 271 103 l 1
 75 300 l 1
EndSplineSet
EndChar

StartChar: uni294D
Encoding: 81 10573 81
Width: 558
Flags: HW
VStem: 242 74<51 549>
LayerCount: 2
Fore
SplineSet
279 -90 m 1
 242 -80 l 1
 242 549 l 1
 135 441 l 1
 82 494 l 1
 279 690 l 1
 316 680 l 1
 316 51 l 1
 423 159 l 1
 476 106 l 1
 279 -90 l 1
EndSplineSet
EndChar

StartChar: sym049
Encoding: 82 -1 82
Width: 978
Flags: HW
HStem: 24 74<234 235 339 491> 502 74<487 639>
LayerCount: 2
Fore
SplineSet
213 24 m 1
 194 57 l 1
 234 98 l 1
 235 98 l 1
 639 502 l 1
 487 502 l 1
 487 576 l 1
 765 576 l 1
 784 543 l 1
 339 98 l 1
 491 98 l 1
 491 24 l 1
 213 24 l 1
EndSplineSet
EndChar

StartChar: sym048
Encoding: 83 -1 83
Width: 978
Flags: HW
VStem: 213 74<298 450> 691 74<150 302>
LayerCount: 2
Fore
SplineSet
765 24 m 1
 732 5 l 1
 287 450 l 1
 287 298 l 1
 213 298 l 1
 213 576 l 1
 246 595 l 1
 691 150 l 1
 691 302 l 1
 765 302 l 1
 765 24 l 1
EndSplineSet
EndChar

StartChar: uni294A
Encoding: 84 10570 84
Width: 930
Flags: HW
HStem: 263 74<216 714>
LayerCount: 2
Fore
SplineSet
75 300 m 1
 271 497 l 1
 324 444 l 1
 216 337 l 1
 845 337 l 1
 855 300 l 1
 659 103 l 1
 606 156 l 1
 714 263 l 1
 85 263 l 1
 75 300 l 1
EndSplineSet
EndChar

StartChar: uni294C
Encoding: 85 10572 85
Width: 558
Flags: HW
VStem: 242 74<51 549>
LayerCount: 2
Fore
SplineSet
279 -90 m 1
 82 106 l 1
 135 159 l 1
 242 51 l 1
 242 680 l 1
 279 690 l 1
 476 494 l 1
 423 441 l 1
 316 549 l 1
 316 -80 l 1
 279 -90 l 1
EndSplineSet
EndChar

StartChar: sym04B
Encoding: 86 -1 86
Width: 978
Flags: HW
VStem: 213 74<150 302> 691 74<298 450>
LayerCount: 2
Fore
SplineSet
213 24 m 1
 213 302 l 1
 287 302 l 1
 287 150 l 1
 732 595 l 1
 765 576 l 1
 765 298 l 1
 691 298 l 1
 691 450 l 1
 246 5 l 1
 213 24 l 1
EndSplineSet
EndChar

StartChar: sym04A
Encoding: 87 -1 87
Width: 978
Flags: HW
HStem: 24 74<487 639> 502 74<234 235 339 491>
LayerCount: 2
Fore
SplineSet
765 24 m 1
 487 24 l 1
 487 98 l 1
 639 98 l 1
 235 502 l 1
 234 502 l 1
 194 543 l 1
 213 576 l 1
 491 576 l 1
 491 502 l 1
 339 502 l 1
 784 57 l 1
 765 24 l 1
EndSplineSet
EndChar

StartChar: uni21CC
Encoding: 88 8652 88
Width: 930
Flags: HW
HStem: 168 74<216 840> 358 74<90 714>
LayerCount: 2
Fore
SplineSet
855 395 m 1
 845 358 l 1
 90 358 l 1
 90 432 l 1
 714 432 l 1
 606 539 l 1
 659 592 l 1
 855 395 l 1
75 205 m 1
 85 242 l 1
 840 242 l 1
 840 168 l 1
 216 168 l 1
 324 61 l 1
 271 8 l 1
 75 205 l 1
EndSplineSet
EndChar

StartChar: uni296E
Encoding: 89 10606 89
Width: 748
Flags: HW
VStem: 242 74<-75 549> 432 74<51 675>
LayerCount: 2
Fore
SplineSet
279 690 m 1
 316 680 l 1
 316 -75 l 1
 242 -75 l 1
 242 549 l 1
 135 441 l 1
 82 494 l 1
 279 690 l 1
469 -90 m 1
 432 -80 l 1
 432 675 l 1
 506 675 l 1
 506 51 l 1
 613 159 l 1
 666 106 l 1
 469 -90 l 1
EndSplineSet
EndChar

StartChar: sym04D
Encoding: 90 -1 90
Width: 1112
Flags: HW
HStem: -43 74<473 625> 569 74<487 639>
LayerCount: 2
Fore
SplineSet
765 643 m 1
 784 610 l 1
 250 76 l 1
 197 128 l 1
 639 569 l 1
 487 569 l 1
 487 643 l 1
 765 643 l 1
347 -43 m 1
 328 -10 l 1
 862 524 l 1
 914 472 l 1
 473 31 l 1
 625 31 l 1
 625 -43 l 1
 347 -43 l 1
EndSplineSet
EndChar

StartChar: sym04C
Encoding: 91 -1 91
Width: 1112
Flags: HW
VStem: 213 74<231 383> 825 74<217 369>
LayerCount: 2
Fore
SplineSet
213 509 m 1
 246 528 l 1
 780 -6 l 1
 728 -59 l 1
 287 383 l 1
 287 231 l 1
 213 231 l 1
 213 509 l 1
899 91 m 1
 866 72 l 1
 332 606 l 1
 384 659 l 1
 825 217 l 1
 825 369 l 1
 899 369 l 1
 899 91 l 1
EndSplineSet
EndChar

StartChar: uni21CB
Encoding: 92 8651 92
Width: 930
Flags: HW
HStem: 168 74<90 714> 358 74<216 840>
LayerCount: 2
Fore
SplineSet
855 205 m 1
 659 8 l 1
 606 61 l 1
 714 168 l 1
 90 168 l 1
 90 242 l 1
 845 242 l 1
 855 205 l 1
75 395 m 1
 271 592 l 1
 324 539 l 1
 216 432 l 1
 840 432 l 1
 840 358 l 1
 85 358 l 1
 75 395 l 1
EndSplineSet
EndChar

StartChar: uni296F
Encoding: 93 10607 93
Width: 748
Flags: HW
VStem: 242 74<51 675> 432 74<-75 549>
LayerCount: 2
Fore
SplineSet
469 690 m 1
 666 494 l 1
 613 441 l 1
 506 549 l 1
 506 -75 l 1
 432 -75 l 1
 432 680 l 1
 469 690 l 1
279 -90 m 1
 82 106 l 1
 135 159 l 1
 242 51 l 1
 242 675 l 1
 316 675 l 1
 316 -80 l 1
 279 -90 l 1
EndSplineSet
EndChar

StartChar: sym04F
Encoding: 94 -1 94
Width: 1112
Flags: HW
VStem: 213 74<217 369> 825 74<231 383>
LayerCount: 2
Fore
SplineSet
899 509 m 1
 899 231 l 1
 825 231 l 1
 825 383 l 1
 384 -59 l 1
 332 -6 l 1
 866 528 l 1
 899 509 l 1
213 91 m 1
 213 369 l 1
 287 369 l 1
 287 217 l 1
 728 659 l 1
 780 606 l 1
 246 72 l 1
 213 91 l 1
EndSplineSet
EndChar

StartChar: sym04E
Encoding: 95 -1 95
Width: 1112
Flags: HW
HStem: -43 74<487 639> 569 74<473 625>
LayerCount: 2
Fore
SplineSet
347 643 m 1
 625 643 l 1
 625 569 l 1
 473 569 l 1
 914 128 l 1
 862 76 l 1
 328 610 l 1
 347 643 l 1
765 -43 m 1
 487 -43 l 1
 487 31 l 1
 639 31 l 1
 197 472 l 1
 250 524 l 1
 784 -10 l 1
 765 -43 l 1
EndSplineSet
EndChar

StartChar: uni21E2
Encoding: 96 8674 96
Width: 930
Flags: HW
HStem: 263 74<90 330 499 714>
LayerCount: 2
Fore
SplineSet
90 263 m 1
 90 337 l 1
 330 337 l 1
 330 263 l 1
 90 263 l 1
855 300 m 1
 677 122 l 1
 625 174 l 1
 714 263 l 1
 499 263 l 1
 499 337 l 1
 714 337 l 1
 625 426 l 1
 677 478 l 1
 855 300 l 1
EndSplineSet
EndChar

StartChar: uni21E1
Encoding: 97 8673 97
Width: 558
Flags: HW
VStem: 242 74<-75 165 334 549>
LayerCount: 2
Fore
SplineSet
316 -75 m 1
 242 -75 l 1
 242 165 l 1
 316 165 l 1
 316 -75 l 1
279 690 m 1
 457 512 l 1
 405 460 l 1
 316 549 l 1
 316 334 l 1
 242 334 l 1
 242 549 l 1
 153 460 l 1
 101 512 l 1
 279 690 l 1
EndSplineSet
EndChar

StartChar: uni21E0
Encoding: 98 8672 98
Width: 930
Flags: HW
HStem: 263 74<216 431 600 840>
LayerCount: 2
Fore
SplineSet
840 337 m 1
 840 263 l 1
 600 263 l 1
 600 337 l 1
 840 337 l 1
75 300 m 1
 253 478 l 1
 305 426 l 1
 216 337 l 1
 431 337 l 1
 431 263 l 1
 216 263 l 1
 305 174 l 1
 253 122 l 1
 75 300 l 1
EndSplineSet
EndChar

StartChar: uni21E3
Encoding: 99 8675 99
Width: 558
Flags: HW
VStem: 242 74<51 266 435 675>
LayerCount: 2
Fore
SplineSet
242 675 m 1
 316 675 l 1
 316 435 l 1
 242 435 l 1
 242 675 l 1
279 -90 m 1
 101 88 l 1
 153 140 l 1
 242 51 l 1
 242 266 l 1
 316 266 l 1
 316 51 l 1
 405 140 l 1
 457 88 l 1
 279 -90 l 1
EndSplineSet
EndChar

StartChar: sym051
Encoding: 100 -1 100
Width: 978
Flags: HW
HStem: 502 74<513 639>
VStem: 691 74<324 450>
LayerCount: 2
Fore
SplineSet
250 9 m 1
 197 61 l 1
 367 231 l 1
 419 178 l 1
 250 9 l 1
765 576 m 1
 765 324 l 1
 691 324 l 1
 691 450 l 1
 539 298 l 1
 487 350 l 1
 639 502 l 1
 513 502 l 1
 513 576 l 1
 765 576 l 1
EndSplineSet
EndChar

StartChar: sym050
Encoding: 101 -1 101
Width: 978
Flags: HW
HStem: 502 74<339 465>
VStem: 213 74<324 450>
LayerCount: 2
Fore
SplineSet
780 61 m 1
 728 9 l 1
 558 178 l 1
 611 231 l 1
 780 61 l 1
213 576 m 1
 465 576 l 1
 465 502 l 1
 339 502 l 1
 491 350 l 1
 439 298 l 1
 287 450 l 1
 287 324 l 1
 213 324 l 1
 213 576 l 1
EndSplineSet
EndChar

StartChar: sym053
Encoding: 102 -1 102
Width: 978
Flags: HW
HStem: 24 74<339 465>
VStem: 213 74<150 276>
LayerCount: 2
Fore
SplineSet
728 591 m 1
 780 539 l 1
 611 369 l 1
 558 422 l 1
 728 591 l 1
213 24 m 1
 213 276 l 1
 287 276 l 1
 287 150 l 1
 439 302 l 1
 491 250 l 1
 339 98 l 1
 465 98 l 1
 465 24 l 1
 213 24 l 1
EndSplineSet
EndChar

StartChar: sym052
Encoding: 103 -1 103
Width: 978
Flags: HW
HStem: 24 74<513 639>
VStem: 691 74<150 276>
LayerCount: 2
Fore
SplineSet
197 539 m 1
 250 591 l 1
 419 422 l 1
 367 369 l 1
 197 539 l 1
765 24 m 1
 513 24 l 1
 513 98 l 1
 639 98 l 1
 487 250 l 1
 539 302 l 1
 691 150 l 1
 691 276 l 1
 765 276 l 1
 765 24 l 1
EndSplineSet
EndChar

StartChar: uni22B8
Encoding: 104 8888 104
Width: 930
Flags: HW
HStem: 141 74<625.41 736.803> 263 74<90 532.989> 385 74<625.41 736.803>
VStem: 766 74<244.838 355.162>
CounterMasks: 1 e0
LayerCount: 2
Fore
SplineSet
681 459 m 0
 770 459 840 386 840 300 c 0
 840 214 770 141 681 141 c 0
 608 141 544 191 527 263 c 1
 90 263 l 1
 90 337 l 1
 527 337 l 1
 544 409 608 459 681 459 c 0
681 215 m 0
 730 215 766 255 766 300 c 0
 766 345 730 385 681 385 c 0
 633 385 597 344 597 300 c 0
 597 256 633 215 681 215 c 0
EndSplineSet
EndChar

StartChar: uni2AEF
Encoding: 105 10991 105
Width: 558
Flags: HW
HStem: 601 74<223.838 334.162>
VStem: 120 74<460.41 571.803> 242 74<-75 367.989> 364 74<460.41 571.803>
CounterMasks: 1 70
LayerCount: 2
Fore
SplineSet
279 675 m 0
 365 675 438 605 438 516 c 0
 438 443 388 379 316 362 c 1
 316 -75 l 1
 242 -75 l 1
 242 362 l 1
 170 379 120 443 120 516 c 0
 120 605 193 675 279 675 c 0
279 432 m 0
 323 432 364 468 364 516 c 0
 364 565 324 601 279 601 c 0
 234 601 194 565 194 516 c 0
 194 468 235 432 279 432 c 0
EndSplineSet
EndChar

StartChar: uni27DC
Encoding: 106 10204 106
Width: 930
Flags: HW
HStem: 141 74<193.197 304.59> 263 74<397.011 840> 385 74<193.197 304.59>
VStem: 90 74<244.838 355.162>
CounterMasks: 1 e0
LayerCount: 2
Fore
SplineSet
249 459 m 0
 322 459 386 409 403 337 c 1
 840 337 l 1
 840 263 l 1
 403 263 l 1
 386 191 322 141 249 141 c 0
 160 141 90 214 90 300 c 0
 90 386 160 459 249 459 c 0
249 215 m 0
 297 215 333 256 333 300 c 0
 333 344 297 385 249 385 c 0
 200 385 164 345 164 300 c 0
 164 255 200 215 249 215 c 0
EndSplineSet
EndChar

StartChar: uni2AF0
Encoding: 107 10992 107
Width: 558
Flags: HW
HStem: -75 74<223.838 334.162>
VStem: 120 74<28.1966 139.59> 242 74<232.011 675> 364 74<28.1966 139.59>
CounterMasks: 1 70
LayerCount: 2
Fore
SplineSet
316 238 m 1
 388 221 438 157 438 84 c 0
 438 -5 365 -75 279 -75 c 0
 193 -75 120 -5 120 84 c 0
 120 157 170 221 242 238 c 1
 242 675 l 1
 316 675 l 1
 316 238 l 1
279 -1 m 0
 324 -1 364 35 364 84 c 0
 364 132 323 168 279 168 c 0
 235 168 194 132 194 84 c 0
 194 35 234 -1 279 -1 c 0
EndSplineSet
EndChar

StartChar: sym054
Encoding: 108 -1 108
Width: 930
Flags: HW
HStem: 141 318<601.838 760.671> 263 74<90 532.989>
LayerCount: 2
Fore
SplineSet
681 459 m 0x80
 770 459 840 386 840 300 c 0
 840 214 770 141 681 141 c 0x80
 608 141 544 191 527 263 c 1
 90 263 l 1
 90 337 l 1
 527 337 l 1x40
 544 409 608 459 681 459 c 0x80
EndSplineSet
EndChar

StartChar: sym056
Encoding: 109 -1 109
Width: 558
Flags: HW
VStem: 120 318<436.838 595.671> 242 74<-75 367.989>
LayerCount: 2
Fore
SplineSet
279 675 m 0x80
 365 675 438 605 438 516 c 0x80
 438 443 388 379 316 362 c 1
 316 -75 l 1
 242 -75 l 1
 242 362 l 1x40
 170 379 120 443 120 516 c 0
 120 605 193 675 279 675 c 0x80
EndSplineSet
EndChar

StartChar: sym055
Encoding: 110 -1 110
Width: 930
Flags: HW
HStem: 141 318<169.329 328.162> 263 74<397.011 840>
LayerCount: 2
Fore
SplineSet
249 459 m 0x80
 322 459 386 409 403 337 c 1
 840 337 l 1
 840 263 l 1
 403 263 l 1x40
 386 191 322 141 249 141 c 0
 160 141 90 214 90 300 c 0
 90 386 160 459 249 459 c 0x80
EndSplineSet
EndChar

StartChar: sym057
Encoding: 111 -1 111
Width: 558
Flags: HW
VStem: 120 318<4.32931 163.162> 242 74<232.011 675>
LayerCount: 2
Fore
SplineSet
316 238 m 1x40
 388 221 438 157 438 84 c 0
 438 -5 365 -75 279 -75 c 0
 193 -75 120 -5 120 84 c 0x80
 120 157 170 221 242 238 c 1
 242 675 l 1
 316 675 l 1
 316 238 l 1x40
EndSplineSet
EndChar

StartChar: uni29DF
Encoding: 112 10719 112
Width: 1230
Flags: HW
HStem: 141 74<193.197 304.59 925.41 1036.8> 263 74<397.011 832.989> 385 74<193.197 304.59 925.41 1036.8>
VStem: 90 74<244.838 355.162> 1066 74<244.838 355.162>
CounterMasks: 1 e0
LayerCount: 2
Fore
SplineSet
981 459 m 0
 1070 459 1140 386 1140 300 c 0
 1140 214 1070 141 981 141 c 0
 908 141 844 191 827 263 c 1
 403 263 l 1
 386 191 322 141 249 141 c 0
 160 141 90 214 90 300 c 0
 90 386 160 459 249 459 c 0
 322 459 386 409 403 337 c 1
 827 337 l 1
 844 409 908 459 981 459 c 0
981 215 m 0
 1030 215 1066 255 1066 300 c 0
 1066 345 1030 385 981 385 c 0
 933 385 897 344 897 300 c 0
 897 256 933 215 981 215 c 0
249 215 m 0
 297 215 333 256 333 300 c 0
 333 344 297 385 249 385 c 0
 200 385 164 345 164 300 c 0
 164 255 200 215 249 215 c 0
EndSplineSet
EndChar

StartChar: sym058
Encoding: 113 -1 113
Width: 1230
Flags: HW
HStem: 141 318<169.329 328.162 901.838 1060.67> 263 74<397.011 832.989>
LayerCount: 2
Fore
SplineSet
981 459 m 0x80
 1070 459 1140 386 1140 300 c 0
 1140 214 1070 141 981 141 c 0x80
 908 141 844 191 827 263 c 1
 403 263 l 1x40
 386 191 322 141 249 141 c 0
 160 141 90 214 90 300 c 0
 90 386 160 459 249 459 c 0x80
 322 459 386 409 403 337 c 1
 827 337 l 1x40
 844 409 908 459 981 459 c 0x80
EndSplineSet
EndChar

StartChar: uni22B7
Encoding: 114 8887 114
Width: 1230
Flags: HW
HStem: 141 318<169.329 328.162> 141 74<925.41 1036.8> 263 74<397.011 832.989> 385 74<925.41 1036.8>
VStem: 1066 74<244.838 355.162>
LayerCount: 2
Fore
SplineSet
981 459 m 0x38
 1070 459 1140 386 1140 300 c 0
 1140 214 1070 141 981 141 c 0
 908 141 844 191 827 263 c 1
 403 263 l 1x78
 386 191 322 141 249 141 c 0
 160 141 90 214 90 300 c 0
 90 386 160 459 249 459 c 0x88
 322 459 386 409 403 337 c 1
 827 337 l 1
 844 409 908 459 981 459 c 0x38
981 215 m 0
 1030 215 1066 255 1066 300 c 0
 1066 345 1030 385 981 385 c 0
 933 385 897 344 897 300 c 0
 897 256 933 215 981 215 c 0
EndSplineSet
EndChar

StartChar: uni22B6
Encoding: 115 8886 115
Width: 1230
Flags: HW
HStem: 141 318<901.838 1060.67> 141 74<193.197 304.59> 263 74<397.011 832.989> 385 74<193.197 304.59>
VStem: 90 74<244.838 355.162>
LayerCount: 2
Fore
SplineSet
981 459 m 0x88
 1070 459 1140 386 1140 300 c 0
 1140 214 1070 141 981 141 c 0x88
 908 141 844 191 827 263 c 1
 403 263 l 1
 386 191 322 141 249 141 c 0
 160 141 90 214 90 300 c 0
 90 386 160 459 249 459 c 0
 322 459 386 409 403 337 c 1
 827 337 l 1x78
 844 409 908 459 981 459 c 0x88
249 215 m 0x58
 297 215 333 256 333 300 c 0
 333 344 297 385 249 385 c 0
 200 385 164 345 164 300 c 0
 164 255 200 215 249 215 c 0x58
EndSplineSet
EndChar

StartChar: sym05A
Encoding: 116 -1 116
Width: 930
Flags: HW
HStem: 60 74<90 362.32> 263 74<90 425 496.634 840> 466 74<90 362.32>
VStem: 425 75<203.419 263 337 396.581>
CounterMasks: 1 e0
LayerCount: 2
Fore
SplineSet
90 134 m 1
 301 134 l 2
 368 134 413 193 425 263 c 1
 90 263 l 1
 90 337 l 1
 425 337 l 1
 413 407 368 466 301 466 c 2
 90 466 l 1
 90 540 l 1
 301 540 l 2
 408 540 486 447 500 337 c 1
 840 337 l 1
 840 263 l 1
 500 263 l 1
 486 153 408 60 301 60 c 2
 90 60 l 1
 90 134 l 1
EndSplineSet
EndChar

StartChar: uni22D4
Encoding: 117 8916 117
Width: 659
Flags: HW
HStem: 260 75<233.419 293 367 426.489>
VStem: 90 74<-75 197.32> 293 74<-75 260 331.634 675> 495 74<-75 197.32>
LayerCount: 2
Fore
SplineSet
495 -75 m 1
 495 136 l 2
 495 203 437 248 367 260 c 1
 367 -75 l 1
 293 -75 l 1
 293 260 l 1
 222 248 164 203 164 136 c 2
 164 -75 l 1
 90 -75 l 1
 90 136 l 2
 90 243 183 321 293 335 c 1
 293 675 l 1
 367 675 l 1
 367 335 l 1
 477 321 569 243 569 136 c 2
 569 -75 l 1
 495 -75 l 1
EndSplineSet
EndChar

StartChar: sym05B
Encoding: 118 -1 118
Width: 930
Flags: HW
HStem: 60 74<567.68 840> 263 74<90 433.366 505 840> 466 74<567.68 840>
VStem: 430 75<203.419 263 337 396.581>
CounterMasks: 1 e0
LayerCount: 2
Fore
SplineSet
840 466 m 1
 629 466 l 2
 562 466 517 407 505 337 c 1
 840 337 l 1
 840 263 l 1
 505 263 l 1
 517 193 562 134 629 134 c 2
 840 134 l 1
 840 60 l 1
 629 60 l 2
 522 60 444 153 430 263 c 1
 90 263 l 1
 90 337 l 1
 430 337 l 1
 444 447 522 540 629 540 c 2
 840 540 l 1
 840 466 l 1
EndSplineSet
EndChar

StartChar: sym059
Encoding: 119 -1 119
Width: 659
Flags: HW
HStem: 265 75<233.419 293 367 426.489>
VStem: 90 74<402.68 675> 293 74<-75 268.366 340 675> 495 74<402.68 675>
LayerCount: 2
Fore
SplineSet
164 675 m 1
 164 464 l 2
 164 397 222 352 293 340 c 1
 293 675 l 1
 367 675 l 1
 367 340 l 1
 437 352 495 397 495 464 c 2
 495 675 l 1
 569 675 l 1
 569 464 l 2
 569 357 477 279 367 265 c 1
 367 -75 l 1
 293 -75 l 1
 293 265 l 1
 183 279 90 357 90 464 c 2
 90 675 l 1
 164 675 l 1
EndSplineSet
EndChar

StartChar: uni21C9
Encoding: 120 8649 120
Width: 930
Flags: HW
HStem: 111 74<90 714> 415 74<90 714>
LayerCount: 2
Fore
SplineSet
855 148 m 1
 677 -30 l 1
 625 22 l 1
 714 111 l 1
 90 111 l 1
 90 185 l 1
 714 185 l 1
 625 274 l 1
 651 300 l 1
 625 326 l 1
 714 415 l 1
 90 415 l 1
 90 489 l 1
 714 489 l 1
 625 578 l 1
 677 630 l 1
 855 452 l 1
 703 300 l 1
 855 148 l 1
EndSplineSet
EndChar

StartChar: uni21C8
Encoding: 121 8648 121
Width: 862
Flags: HW
VStem: 242 74<-75 549> 546 74<-75 549>
LayerCount: 2
Fore
SplineSet
583 690 m 1
 761 512 l 1
 709 460 l 1
 620 549 l 1
 620 -75 l 1
 546 -75 l 1
 546 549 l 1
 457 460 l 1
 431 486 l 1
 405 460 l 1
 316 549 l 1
 316 -75 l 1
 242 -75 l 1
 242 549 l 1
 153 460 l 1
 101 512 l 1
 279 690 l 1
 431 538 l 1
 583 690 l 1
EndSplineSet
EndChar

StartChar: uni21C7
Encoding: 122 8647 122
Width: 930
Flags: HW
HStem: 111 74<216 840> 415 74<216 840>
LayerCount: 2
Fore
SplineSet
75 452 m 1
 253 630 l 1
 305 578 l 1
 216 489 l 1
 840 489 l 1
 840 415 l 1
 216 415 l 1
 305 326 l 1
 279 300 l 1
 305 274 l 1
 216 185 l 1
 840 185 l 1
 840 111 l 1
 216 111 l 1
 305 22 l 1
 253 -30 l 1
 75 148 l 1
 227 300 l 1
 75 452 l 1
EndSplineSet
EndChar

StartChar: uni21CA
Encoding: 123 8650 123
Width: 862
Flags: HW
VStem: 242 74<51 675> 546 74<51 675>
LayerCount: 2
Fore
SplineSet
279 -90 m 1
 101 88 l 1
 153 140 l 1
 242 51 l 1
 242 675 l 1
 316 675 l 1
 316 51 l 1
 405 140 l 1
 431 114 l 1
 457 140 l 1
 546 51 l 1
 546 675 l 1
 620 675 l 1
 620 51 l 1
 709 140 l 1
 761 88 l 1
 583 -90 l 1
 431 62 l 1
 279 -90 l 1
EndSplineSet
EndChar

StartChar: sym05D
Encoding: 124 -1 124
Width: 1193
Flags: HW
HStem: 395 74<765 854> 609 74<513 638>
VStem: 691 74<469 557> 906 74<217 342>
LayerCount: 2
Fore
SplineSet
980 469 m 1
 980 217 l 1
 906 217 l 1
 906 342 l 1
 465 -99 l 1
 412 -46 l 1
 854 395 l 1
 728 395 l 1
 728 432 l 1
 691 432 l 1
 691 557 l 1
 250 116 l 1
 197 168 l 1
 638 609 l 1
 513 609 l 1
 513 683 l 1
 765 683 l 1
 765 469 l 1
 980 469 l 1
EndSplineSet
EndChar

StartChar: sym05C
Encoding: 125 -1 125
Width: 1193
Flags: HW
HStem: 395 74<339 428> 609 74<555 680>
VStem: 213 74<217 342> 428 74<469 557>
LayerCount: 2
Fore
SplineSet
428 683 m 1
 680 683 l 1
 680 609 l 1
 555 609 l 1
 995 168 l 1
 943 116 l 1
 502 557 l 1
 502 432 l 1
 465 432 l 1
 465 395 l 1
 339 395 l 1
 780 -46 l 1
 728 -99 l 1
 287 342 l 1
 287 217 l 1
 213 217 l 1
 213 469 l 1
 428 469 l 1
 428 683 l 1
EndSplineSet
EndChar

StartChar: sym05F
Encoding: 126 -1 126
Width: 1193
Flags: HW
HStem: -83 74<555 680> 131 74<339 428>
VStem: 213 74<258 383> 428 74<43 131>
LayerCount: 2
Fore
SplineSet
213 131 m 1
 213 383 l 1
 287 383 l 1
 287 258 l 1
 728 699 l 1
 780 646 l 1
 339 205 l 1
 465 205 l 1
 465 168 l 1
 502 168 l 1
 502 43 l 1
 943 484 l 1
 995 432 l 1
 555 -9 l 1
 680 -9 l 1
 680 -83 l 1
 428 -83 l 1
 428 131 l 1
 213 131 l 1
EndSplineSet
EndChar

StartChar: sym05E
Encoding: 127 -1 127
Width: 1193
Flags: HW
HStem: -83 74<513 638> 131 74<765 854>
VStem: 691 74<43 131> 906 74<258 383>
LayerCount: 2
Fore
SplineSet
765 -83 m 1
 513 -83 l 1
 513 -9 l 1
 638 -9 l 1
 197 432 l 1
 250 484 l 1
 691 43 l 1
 691 168 l 1
 728 168 l 1
 728 205 l 1
 854 205 l 1
 412 646 l 1
 465 699 l 1
 906 258 l 1
 906 383 l 1
 980 383 l 1
 980 131 l 1
 765 131 l 1
 765 -83 l 1
EndSplineSet
EndChar

StartChar: uni21C4
Encoding: 128 8644 128
Width: 930
Flags: HW
HStem: 111 74<216 840> 415 74<90 714>
LayerCount: 2
Fore
SplineSet
855 452 m 1
 677 274 l 1
 625 326 l 1
 714 415 l 1
 90 415 l 1
 90 489 l 1
 714 489 l 1
 625 578 l 1
 677 630 l 1
 855 452 l 1
75 148 m 1
 253 326 l 1
 305 274 l 1
 216 185 l 1
 840 185 l 1
 840 111 l 1
 216 111 l 1
 305 22 l 1
 253 -30 l 1
 75 148 l 1
EndSplineSet
EndChar

StartChar: uni21C5
Encoding: 129 8645 129
Width: 862
Flags: HW
VStem: 242 74<-75 549> 546 74<51 675>
LayerCount: 2
Fore
SplineSet
279 690 m 1
 457 512 l 1
 405 460 l 1
 316 549 l 1
 316 -75 l 1
 242 -75 l 1
 242 549 l 1
 153 460 l 1
 101 512 l 1
 279 690 l 1
583 -90 m 1
 405 88 l 1
 457 140 l 1
 546 51 l 1
 546 675 l 1
 620 675 l 1
 620 51 l 1
 709 140 l 1
 761 88 l 1
 583 -90 l 1
EndSplineSet
EndChar

StartChar: sym061
Encoding: 130 -1 130
Width: 1193
Flags: HW
HStem: -83 74<555 680> 609 74<513 638>
VStem: 428 74<43 168> 691 74<432 557>
LayerCount: 2
Fore
SplineSet
765 683 m 1
 765 432 l 1
 691 432 l 1
 691 557 l 1
 250 116 l 1
 197 168 l 1
 638 609 l 1
 513 609 l 1
 513 683 l 1
 765 683 l 1
428 -83 m 1
 428 168 l 1
 502 168 l 1
 502 43 l 1
 943 484 l 1
 995 432 l 1
 555 -9 l 1
 680 -9 l 1
 680 -83 l 1
 428 -83 l 1
EndSplineSet
EndChar

StartChar: sym060
Encoding: 131 -1 131
Width: 1193
Flags: HW
HStem: 131 74<728 854> 395 74<339 465>
VStem: 213 74<217 342> 906 74<258 383>
LayerCount: 2
Fore
SplineSet
213 469 m 1
 465 469 l 1
 465 395 l 1
 339 395 l 1
 780 -46 l 1
 728 -99 l 1
 287 342 l 1
 287 217 l 1
 213 217 l 1
 213 469 l 1
980 131 m 1
 728 131 l 1
 728 205 l 1
 854 205 l 1
 412 646 l 1
 465 699 l 1
 906 258 l 1
 906 383 l 1
 980 383 l 1
 980 131 l 1
EndSplineSet
EndChar

StartChar: uni21C6
Encoding: 132 8646 132
Width: 930
Flags: HW
HStem: 111 74<90 714> 415 74<216 840>
LayerCount: 2
Fore
SplineSet
855 148 m 1
 677 -30 l 1
 625 22 l 1
 714 111 l 1
 90 111 l 1
 90 185 l 1
 714 185 l 1
 625 274 l 1
 677 326 l 1
 855 148 l 1
75 452 m 1
 253 630 l 1
 305 578 l 1
 216 489 l 1
 840 489 l 1
 840 415 l 1
 216 415 l 1
 305 326 l 1
 253 274 l 1
 75 452 l 1
EndSplineSet
EndChar

StartChar: uni21F5
Encoding: 133 8693 133
Width: 862
Flags: HW
VStem: 242 74<51 675> 546 74<-75 549>
LayerCount: 2
Fore
SplineSet
583 690 m 1
 761 512 l 1
 709 460 l 1
 620 549 l 1
 620 -75 l 1
 546 -75 l 1
 546 549 l 1
 457 460 l 1
 405 512 l 1
 583 690 l 1
279 -90 m 1
 101 88 l 1
 153 140 l 1
 242 51 l 1
 242 675 l 1
 316 675 l 1
 316 51 l 1
 405 140 l 1
 457 88 l 1
 279 -90 l 1
EndSplineSet
EndChar

StartChar: sym063
Encoding: 134 -1 134
Width: 1193
Flags: HW
HStem: 131 74<339 465> 395 74<728 854>
VStem: 213 74<258 383> 906 74<217 342>
LayerCount: 2
Fore
SplineSet
980 469 m 1
 980 217 l 1
 906 217 l 1
 906 342 l 1
 465 -99 l 1
 412 -46 l 1
 854 395 l 1
 728 395 l 1
 728 469 l 1
 980 469 l 1
213 131 m 1
 213 383 l 1
 287 383 l 1
 287 258 l 1
 728 699 l 1
 780 646 l 1
 339 205 l 1
 465 205 l 1
 465 131 l 1
 213 131 l 1
EndSplineSet
EndChar

StartChar: sym062
Encoding: 135 -1 135
Width: 1193
Flags: HW
HStem: -83 74<513 638> 609 74<555 680>
VStem: 428 74<432 557> 691 74<43 168>
LayerCount: 2
Fore
SplineSet
428 683 m 1
 680 683 l 1
 680 609 l 1
 555 609 l 1
 995 168 l 1
 943 116 l 1
 502 557 l 1
 502 432 l 1
 428 432 l 1
 428 683 l 1
765 -83 m 1
 513 -83 l 1
 513 -9 l 1
 638 -9 l 1
 197 432 l 1
 250 484 l 1
 691 43 l 1
 691 168 l 1
 765 168 l 1
 765 -83 l 1
EndSplineSet
EndChar

StartChar: uni219D
Encoding: 136 8605 136
Width: 930
Flags: HW
HStem: 187 74<452.959 544.378> 263 74<613.958 714> 339 74<221.831 327.041>
CounterMasks: 1 e0
LayerCount: 2
Fore
SplineSet
653 263 m 2
 627 263 561 187 503 187 c 0
 443 187 394 229 360 279 c 0
 339 309 313 339 277 339 c 0
 222 339 189 286 157 241 c 1
 97 283 l 1
 142 348 199 413 277 413 c 0
 337 413 386 371 420 321 c 0
 441 291 467 261 503 261 c 0
 524 261 539 280 556 292 c 0
 586 313 620 337 653 337 c 2
 714 337 l 1
 625 426 l 1
 677 478 l 1
 855 300 l 1
 677 122 l 1
 625 174 l 1
 714 263 l 1
 653 263 l 2
EndSplineSet
EndChar

StartChar: sym064.alt
Encoding: 137 -1 137
Width: 558
Flags: HW
VStem: 166 74<56.8314 162.041> 242 74<448.958 549> 318 74<287.959 379.378>
CounterMasks: 1 e0
LayerCount: 2
Fore
SplineSet
316 488 m 2
 316 462 392 396 392 338 c 0
 392 278 350 229 300 195 c 0
 270 174 240 148 240 112 c 0
 240 57 293 24 338 -8 c 1
 296 -68 l 1
 231 -23 166 34 166 112 c 0
 166 172 208 221 258 255 c 0
 288 276 318 302 318 338 c 0
 318 359 299 374 287 391 c 0
 266 421 242 455 242 488 c 2
 242 549 l 1
 153 460 l 1
 101 512 l 1
 279 690 l 1
 457 512 l 1
 405 460 l 1
 316 549 l 1
 316 488 l 2
EndSplineSet
EndChar

StartChar: uni219C.alt
Encoding: 138 -1 138
Width: 930
Flags: HW
HStem: 187 74<602.959 708.169> 263 74<216 316.042> 339 74<385.622 477.041>
CounterMasks: 1 e0
LayerCount: 2
Fore
SplineSet
277 337 m 2
 303 337 369 413 427 413 c 0
 487 413 536 371 570 321 c 0
 591 291 617 261 653 261 c 0
 708 261 741 314 773 359 c 1
 833 317 l 1
 788 252 731 187 653 187 c 0
 593 187 544 229 510 279 c 0
 489 309 463 339 427 339 c 0
 406 339 391 320 374 308 c 0
 344 287 310 263 277 263 c 2
 216 263 l 1
 305 174 l 1
 253 122 l 1
 75 300 l 1
 253 478 l 1
 305 426 l 1
 216 337 l 1
 277 337 l 2
EndSplineSet
EndChar

StartChar: sym065
Encoding: 139 -1 139
Width: 558
Flags: HW
VStem: 166 74<220.622 312.041> 242 74<51 151.042> 318 74<437.959 543.169>
CounterMasks: 1 e0
LayerCount: 2
Fore
SplineSet
242 112 m 2
 242 138 166 204 166 262 c 0
 166 322 208 371 258 405 c 0
 288 426 318 452 318 488 c 0
 318 543 265 576 220 608 c 1
 262 668 l 1
 327 623 392 566 392 488 c 0
 392 428 350 379 300 345 c 0
 270 324 240 298 240 262 c 0
 240 241 259 226 271 209 c 0
 292 179 316 145 316 112 c 2
 316 51 l 1
 405 140 l 1
 457 88 l 1
 279 -90 l 1
 101 88 l 1
 153 140 l 1
 242 51 l 1
 242 112 l 2
EndSplineSet
EndChar

StartChar: uni219D.alt
Encoding: 140 -1 140
Width: 930
Flags: HW
HStem: 187 74<221.831 327.041> 263 74<613.958 714> 339 74<452.959 544.378>
CounterMasks: 1 e0
LayerCount: 2
Fore
SplineSet
503 413 m 0
 561 413 627 337 653 337 c 2
 714 337 l 1
 625 426 l 1
 677 478 l 1
 855 300 l 1
 677 122 l 1
 625 174 l 1
 714 263 l 1
 653 263 l 2
 620 263 586 287 556 308 c 0
 539 320 524 339 503 339 c 0
 467 339 441 309 420 279 c 0
 386 229 337 187 277 187 c 0
 199 187 142 252 97 317 c 1
 157 359 l 1
 189 314 222 261 277 261 c 0
 313 261 339 291 360 321 c 0
 394 371 443 413 503 413 c 0
EndSplineSet
EndChar

StartChar: sym064
Encoding: 141 -1 141
Width: 558
Flags: HW
VStem: 166 74<287.959 379.378> 242 74<448.958 549> 318 74<56.8314 162.041>
CounterMasks: 1 e0
LayerCount: 2
Fore
SplineSet
166 338 m 0
 166 396 242 462 242 488 c 2
 242 549 l 1
 153 460 l 1
 101 512 l 1
 279 690 l 1
 457 512 l 1
 405 460 l 1
 316 549 l 1
 316 488 l 2
 316 455 292 421 271 391 c 0
 259 374 240 359 240 338 c 0
 240 302 270 276 300 255 c 0
 350 221 392 172 392 112 c 0
 392 34 327 -23 262 -68 c 1
 220 -8 l 1
 265 24 318 57 318 112 c 0
 318 148 288 174 258 195 c 0
 208 229 166 278 166 338 c 0
EndSplineSet
EndChar

StartChar: uni219C
Encoding: 142 8604 142
Width: 930
Flags: HW
HStem: 187 74<385.622 477.041> 263 74<216 316.042> 339 74<602.959 708.169>
CounterMasks: 1 e0
LayerCount: 2
Fore
SplineSet
427 187 m 0
 369 187 303 263 277 263 c 2
 216 263 l 1
 305 174 l 1
 253 122 l 1
 75 300 l 1
 253 478 l 1
 305 426 l 1
 216 337 l 1
 277 337 l 2
 310 337 344 313 374 292 c 0
 391 280 406 261 427 261 c 0
 463 261 489 291 510 321 c 0
 544 371 593 413 653 413 c 0
 731 413 788 348 833 283 c 1
 773 241 l 1
 741 286 708 339 653 339 c 0
 617 339 591 309 570 279 c 0
 536 229 487 187 427 187 c 0
EndSplineSet
EndChar

StartChar: sym065.alt
Encoding: 143 -1 143
Width: 558
Flags: HW
VStem: 166 74<437.959 543.169> 242 74<51 151.042> 318 74<220.622 312.041>
CounterMasks: 1 e0
LayerCount: 2
Fore
SplineSet
392 262 m 0
 392 204 316 138 316 112 c 2
 316 51 l 1
 405 140 l 1
 457 88 l 1
 279 -90 l 1
 101 88 l 1
 153 140 l 1
 242 51 l 1
 242 112 l 2
 242 145 266 179 287 209 c 0
 299 226 318 241 318 262 c 0
 318 298 288 324 258 345 c 0
 208 379 166 428 166 488 c 0
 166 566 231 623 296 668 c 1
 338 608 l 1
 293 576 240 543 240 488 c 0
 240 452 270 426 300 405 c 0
 350 371 392 322 392 262 c 0
EndSplineSet
EndChar

StartChar: uni21AD
Encoding: 144 8621 144
Width: 1080
Flags: HW
HStem: 187 74<602.959 692.898> 263 74<216 317.503 760.97 864> 339 74<384.89 477.041>
CounterMasks: 1 e0
LayerCount: 2
Fore
SplineSet
427 339 m 0
 392 339 342 263 277 263 c 2
 216 263 l 1
 305 174 l 1
 253 122 l 1
 75 300 l 1
 253 478 l 1
 305 426 l 1
 216 337 l 1
 277 337 l 2
 299 337 314 356 331 368 c 0
 361 389 391 413 427 413 c 0
 487 413 536 371 570 321 c 0
 591 291 617 261 653 261 c 0
 662 261 689 280 707 292 c 0
 736 313 766 337 803 337 c 2
 864 337 l 1
 775 426 l 1
 827 478 l 1
 1005 300 l 1
 827 122 l 1
 775 174 l 1
 864 263 l 1
 803 263 l 2
 781 263 766 244 749 232 c 0
 719 211 685 187 653 187 c 0
 593 187 544 229 510 279 c 0
 489 309 463 339 427 339 c 0
EndSplineSet
EndChar

StartChar: sym066.alt
Encoding: 145 -1 145
Width: 558
Flags: HW
HStem: 745 20G<259 299>
VStem: 166 74<144.89 237.041> 242 74<-24 77.5029 520.97 624> 318 74<362.959 452.898>
CounterMasks: 1 70
LayerCount: 2
Fore
SplineSet
240 187 m 0
 240 152 316 102 316 37 c 2
 316 -24 l 1
 405 65 l 1
 457 13 l 1
 279 -165 l 1
 101 13 l 1
 153 65 l 1
 242 -24 l 1
 242 37 l 2
 242 59 223 74 211 91 c 0
 190 121 166 151 166 187 c 0
 166 247 208 296 258 330 c 0
 288 351 318 377 318 413 c 0
 318 422 299 449 287 467 c 0
 266 496 242 526 242 563 c 2
 242 624 l 1
 153 535 l 1
 101 587 l 1
 279 765 l 1
 457 587 l 1
 405 535 l 1
 316 624 l 1
 316 563 l 2
 316 541 335 526 347 509 c 0
 368 479 392 445 392 413 c 0
 392 353 350 304 300 270 c 0
 270 249 240 223 240 187 c 0
EndSplineSet
EndChar

StartChar: uni21AD.alt
Encoding: 146 -1 146
Width: 1080
Flags: HW
HStem: 187 74<384.89 477.041> 263 74<216 317.503 760.97 864> 339 74<602.959 692.898>
CounterMasks: 1 e0
LayerCount: 2
Fore
SplineSet
277 337 m 2
 342 337 392 261 427 261 c 0
 463 261 489 291 510 321 c 0
 544 371 593 413 653 413 c 0
 685 413 719 389 749 368 c 0
 766 356 781 337 803 337 c 2
 864 337 l 1
 775 426 l 1
 827 478 l 1
 1005 300 l 1
 827 122 l 1
 775 174 l 1
 864 263 l 1
 803 263 l 2
 766 263 736 287 707 308 c 0
 689 320 662 339 653 339 c 0
 617 339 591 309 570 279 c 0
 536 229 487 187 427 187 c 0
 391 187 361 211 331 232 c 0
 314 244 299 263 277 263 c 2
 216 263 l 1
 305 174 l 1
 253 122 l 1
 75 300 l 1
 253 478 l 1
 305 426 l 1
 216 337 l 1
 277 337 l 2
EndSplineSet
EndChar

StartChar: sym066
Encoding: 147 -1 147
Width: 558
Flags: HW
HStem: 745 20G<259 299>
VStem: 166 74<362.959 452.898> 242 74<-24 77.5029 520.97 624> 318 74<144.89 237.041>
CounterMasks: 1 70
LayerCount: 2
Fore
SplineSet
242 37 m 2
 242 102 318 152 318 187 c 0
 318 223 288 249 258 270 c 0
 208 304 166 353 166 413 c 0
 166 445 190 479 211 509 c 0
 223 526 242 541 242 563 c 2
 242 624 l 1
 153 535 l 1
 101 587 l 1
 279 765 l 1
 457 587 l 1
 405 535 l 1
 316 624 l 1
 316 563 l 2
 316 526 292 496 271 467 c 0
 259 449 240 422 240 413 c 0
 240 377 270 351 300 330 c 0
 350 296 392 247 392 187 c 0
 392 151 368 121 347 91 c 0
 335 74 316 59 316 37 c 2
 316 -24 l 1
 405 65 l 1
 457 13 l 1
 279 -165 l 1
 101 13 l 1
 153 65 l 1
 242 -24 l 1
 242 37 l 2
EndSplineSet
EndChar

StartChar: sym069
Encoding: 148 -1 148
Width: 930
Flags: HW
HStem: 339 74<304.052 527.167>
LayerCount: 2
Fore
SplineSet
414 413 m 0
 483 413 621 393 741 251 c 1
 751 365 l 1
 825 359 l 1
 803 108 l 1
 552 130 l 1
 558 204 l 1
 694 192 l 1
 651 246 556 339 414 339 c 0
 312 339 217 287 157 203 c 1
 97 245 l 1
 170 349 287 413 414 413 c 0
EndSplineSet
EndChar

StartChar: sym068
Encoding: 149 -1 149
Width: 558
Flags: HW
VStem: 166 74<139.052 362.167>
LayerCount: 2
Fore
SplineSet
166 249 m 0
 166 318 186 456 328 576 c 1
 214 586 l 1
 220 660 l 1
 471 638 l 1
 449 387 l 1
 375 393 l 1
 387 529 l 1
 333 486 240 391 240 249 c 0
 240 147 292 52 376 -8 c 1
 334 -68 l 1
 230 5 166 122 166 249 c 0
EndSplineSet
EndChar

StartChar: sym067
Encoding: 150 -1 150
Width: 930
Flags: HW
HStem: 187 74<402.833 625.948>
LayerCount: 2
Fore
SplineSet
516 187 m 0
 447 187 309 207 189 349 c 1
 179 235 l 1
 105 241 l 1
 127 492 l 1
 378 470 l 1
 372 396 l 1
 236 408 l 1
 279 354 374 261 516 261 c 0
 618 261 713 313 773 397 c 1
 833 355 l 1
 760 251 643 187 516 187 c 0
EndSplineSet
EndChar

StartChar: uni2938
Encoding: 151 10552 151
Width: 558
Flags: HW
VStem: 318 74<237.874 460.948>
LayerCount: 2
Fore
SplineSet
392 351 m 0
 392 282 372 145 231 24 c 1
 344 14 l 1
 338 -60 l 1
 87 -38 l 1
 109 213 l 1
 183 207 l 1
 171 70 l 1
 224 113 318 209 318 351 c 0
 318 453 266 548 182 608 c 1
 224 668 l 1
 328 595 392 478 392 351 c 0
EndSplineSet
EndChar

StartChar: sym06C
Encoding: 152 -1 152
Width: 978
Flags: HW
HStem: 1 21G<265 340> 389 73<553.833 717.534>
VStem: 261 74<13.6176 184.205>
LayerCount: 2
Fore
SplineSet
261 71 m 0
 261 278 421 462 677 462 c 0
 691 462 704 462 718 461 c 1
 645 549 l 1
 702 596 l 1
 864 403 l 1
 671 241 l 1
 623 298 l 1
 728 386 l 1
 711 388 693 389 676 389 c 0
 463 389 335 239 335 71 c 0
 335 52 337 33 340 14 c 1
 267 1 l 1
 263 24 261 48 261 71 c 0
EndSplineSet
EndChar

StartChar: sym06B
Encoding: 153 -1 153
Width: 978
Flags: HW
HStem: 72 74<605.075 775.382>
VStem: 326 74<358.269 528.534>
LayerCount: 2
Fore
SplineSet
718 72 m 0
 506 72 326 237 326 489 c 0
 326 502 326 516 327 529 c 1
 240 456 l 1
 193 513 l 1
 386 675 l 1
 548 482 l 1
 491 434 l 1
 403 539 l 1
 401 522 400 504 400 487 c 0
 400 270 555 146 719 146 c 0
 738 146 756 148 775 151 c 1
 788 78 l 1
 765 74 741 72 718 72 c 0
EndSplineSet
EndChar

StartChar: uni2936
Encoding: 154 10550 154
Width: 978
Flags: HW
HStem: 138 73<259.466 423.46>
VStem: 643 74<416.679 586.382>
LayerCount: 2
Fore
SplineSet
717 529 m 0
 717 320 555 138 301 138 c 0
 287 138 273 138 259 139 c 1
 333 51 l 1
 276 4 l 1
 114 197 l 1
 307 359 l 1
 355 302 l 1
 249 214 l 1
 266 212 284 211 301 211 c 0
 518 211 643 366 643 530 c 0
 643 549 641 567 638 586 c 1
 711 599 l 1
 715 576 717 552 717 529 c 0
EndSplineSet
EndChar

StartChar: uni2935
Encoding: 155 10549 155
Width: 978
Flags: HW
HStem: 454 74<201.647 372.774>
VStem: 578 73<71.3594 235.167>
LayerCount: 2
Fore
SplineSet
260 528 m 0
 467 528 651 368 651 112 c 0
 651 98 651 85 650 71 c 1
 737 144 l 1
 785 87 l 1
 592 -75 l 1
 430 118 l 1
 487 166 l 1
 575 61 l 1
 577 78 578 95 578 112 c 0
 578 324 427 454 259 454 c 0
 240 454 221 452 202 449 c 1
 190 522 l 1
 213 526 237 528 260 528 c 0
EndSplineSet
EndChar

StartChar: uni293B
Encoding: 156 10555 156
Width: 930
Flags: HW
HStem: 187 74<304.052 528.166>
LayerCount: 2
Fore
SplineSet
741 349 m 1
 691 290 580 187 414 187 c 0
 287 187 170 251 97 355 c 1
 157 397 l 1
 217 313 312 261 414 261 c 0
 473 261 591 279 694 408 c 1
 558 396 l 1
 552 470 l 1
 803 492 l 1
 825 241 l 1
 751 235 l 1
 741 349 l 1
EndSplineSet
EndChar

StartChar: sym06A
Encoding: 157 -1 157
Width: 558
Flags: HW
VStem: 318 74<139.052 363.182>
LayerCount: 2
Fore
SplineSet
231 576 m 1
 290 526 392 414 392 249 c 0
 392 122 328 5 224 -68 c 1
 182 -8 l 1
 266 52 318 147 318 249 c 0
 318 308 300 427 171 530 c 1
 183 393 l 1
 109 387 l 1
 87 638 l 1
 338 660 l 1
 344 586 l 1
 231 576 l 1
EndSplineSet
EndChar

StartChar: uni293A
Encoding: 158 10554 158
Width: 930
Flags: HW
HStem: 339 74<401.834 625.948>
LayerCount: 2
Fore
SplineSet
189 251 m 1
 239 310 350 413 516 413 c 0
 643 413 760 349 833 245 c 1
 773 203 l 1
 713 287 618 339 516 339 c 0
 457 339 339 321 236 192 c 1
 372 204 l 1
 378 130 l 1
 127 108 l 1
 105 359 l 1
 179 365 l 1
 189 251 l 1
EndSplineSet
EndChar

StartChar: uni2939
Encoding: 159 10553 159
Width: 558
Flags: HW
VStem: 166 74<236.834 460.948>
LayerCount: 2
Fore
SplineSet
328 24 m 1
 269 74 166 185 166 351 c 0
 166 478 230 595 334 668 c 1
 376 608 l 1
 292 548 240 453 240 351 c 0
 240 292 258 174 387 71 c 1
 375 207 l 1
 449 213 l 1
 471 -38 l 1
 220 -60 l 1
 214 14 l 1
 328 24 l 1
EndSplineSet
EndChar

StartChar: uni2934
Encoding: 160 10548 160
Width: 978
Flags: HW
HStem: 72 74<201.647 372.774>
VStem: 578 73<364.833 528.641>
LayerCount: 2
Fore
SplineSet
259 146 m 0
 427 146 578 276 578 488 c 0
 578 505 577 522 575 539 c 1
 487 434 l 1
 430 482 l 1
 592 675 l 1
 785 513 l 1
 737 456 l 1
 650 529 l 1
 651 515 651 502 651 488 c 0
 651 232 467 72 260 72 c 0
 237 72 213 74 190 78 c 1
 202 151 l 1
 221 148 240 146 259 146 c 0
EndSplineSet
EndChar

StartChar: sym06D
Encoding: 161 -1 161
Width: 978
Flags: HW
HStem: 1 21G<638 713> 389 73<259.466 423.46>
VStem: 643 74<13.6176 183.321>
LayerCount: 2
Fore
SplineSet
643 70 m 0
 643 234 518 389 301 389 c 0
 284 389 266 388 249 386 c 1
 355 298 l 1
 307 241 l 1
 114 403 l 1
 276 596 l 1
 333 549 l 1
 259 461 l 1
 273 462 287 462 301 462 c 0
 555 462 717 280 717 71 c 0
 717 48 715 24 711 1 c 1
 638 14 l 1
 641 33 643 51 643 70 c 0
EndSplineSet
EndChar

StartChar: sym06E
Encoding: 162 -1 162
Width: 978
Flags: HW
HStem: 454 74<605.075 775.382>
VStem: 326 74<71.4664 241.731>
LayerCount: 2
Fore
SplineSet
719 454 m 0
 555 454 400 330 400 113 c 0
 400 96 401 78 403 61 c 1
 491 166 l 1
 548 118 l 1
 386 -75 l 1
 193 87 l 1
 240 144 l 1
 327 71 l 1
 326 84 326 98 326 111 c 0
 326 363 506 528 718 528 c 0
 741 528 765 526 788 522 c 1
 775 449 l 1
 756 452 738 454 719 454 c 0
EndSplineSet
EndChar

StartChar: uni2937
Encoding: 163 10551 163
Width: 978
Flags: HW
HStem: 138 73<553.833 717.534>
VStem: 261 74<415.795 586.382>
LayerCount: 2
Fore
SplineSet
335 529 m 0
 335 361 463 211 676 211 c 0
 693 211 711 212 728 214 c 1
 623 302 l 1
 671 359 l 1
 864 197 l 1
 702 4 l 1
 645 51 l 1
 718 139 l 1
 704 138 691 138 677 138 c 0
 421 138 261 322 261 529 c 0
 261 552 263 576 267 599 c 1
 340 586 l 1
 337 567 335 548 335 529 c 0
EndSplineSet
EndChar

StartChar: sym06F
Encoding: 164 -1 164
Width: 1080
Flags: HW
HStem: 339 74<418.876 661.124>
LayerCount: 2
Fore
SplineSet
945 108 m 1
 694 130 l 1
 701 204 l 1
 836 192 l 1
 762 281 657 339 540 339 c 0
 423 339 318 281 244 192 c 1
 379 204 l 1
 386 130 l 1
 135 108 l 1
 113 359 l 1
 186 365 l 1
 196 250 l 1
 283 350 406 413 540 413 c 0
 674 413 797 350 884 250 c 1
 894 365 l 1
 967 359 l 1
 945 108 l 1
EndSplineSet
EndChar

StartChar: sym070
Encoding: 165 -1 165
Width: 558
Flags: HW
VStem: 166 74<178.876 421.124>
LayerCount: 2
Fore
SplineSet
471 705 m 1
 449 454 l 1
 375 461 l 1
 387 596 l 1
 298 522 240 417 240 300 c 0
 240 183 298 78 387 4 c 1
 375 139 l 1
 449 146 l 1
 471 -105 l 1
 220 -127 l 1
 214 -54 l 1
 329 -44 l 1
 229 43 166 166 166 300 c 0
 166 434 229 557 329 644 c 1
 214 654 l 1
 220 727 l 1
 471 705 l 1
EndSplineSet
EndChar

StartChar: sym071
Encoding: 166 -1 166
Width: 1080
Flags: HW
HStem: 187 74<418.876 661.124>
LayerCount: 2
Fore
SplineSet
135 492 m 1
 386 470 l 1
 379 396 l 1
 244 408 l 1
 318 319 423 261 540 261 c 0
 657 261 762 319 836 408 c 1
 701 396 l 1
 694 470 l 1
 945 492 l 1
 967 241 l 1
 894 235 l 1
 884 350 l 1
 797 250 674 187 540 187 c 0
 406 187 283 250 196 350 c 1
 186 235 l 1
 113 241 l 1
 135 492 l 1
EndSplineSet
EndChar

StartChar: sym072
Encoding: 167 -1 167
Width: 558
Flags: HW
VStem: 318 74<178.728 421.272>
LayerCount: 2
Fore
SplineSet
87 -105 m 1
 109 146 l 1
 183 139 l 1
 171 3 l 1
 260 77 318 183 318 300 c 0
 318 417 260 523 171 597 c 1
 183 461 l 1
 109 454 l 1
 87 705 l 1
 338 727 l 1
 344 654 l 1
 230 644 l 1
 329 557 392 434 392 300 c 0
 392 166 329 43 230 -44 c 1
 344 -54 l 1
 338 -127 l 1
 87 -105 l 1
EndSplineSet
EndChar

StartChar: sym074
Encoding: 168 -1 168
Width: 1084
Flags: HW
HStem: 435 74<659.412 820>
VStem: 333 74<22 186.4>
LayerCount: 2
Fore
SplineSet
333 56 m 0
 333 316 526 509 786 509 c 0
 797 509 809 509 820 508 c 1
 746 596 l 1
 802 644 l 1
 964 451 l 1
 771 289 l 1
 724 346 l 1
 828 433 l 1
 814 434 800 435 786 435 c 0
 566 435 407 274 407 55 c 0
 407 41 408 28 409 14 c 1
 496 118 l 1
 553 71 l 1
 391 -122 l 1
 198 40 l 1
 246 96 l 1
 334 22 l 1
 333 33 333 45 333 56 c 0
EndSplineSet
EndChar

StartChar: sym073
Encoding: 169 -1 169
Width: 1084
Flags: HW
HStem: 91 74<659.412 820>
VStem: 333 74<413.6 578>
LayerCount: 2
Fore
SplineSet
786 91 m 0
 526 91 333 284 333 544 c 0
 333 555 333 567 334 578 c 1
 246 504 l 1
 198 560 l 1
 391 722 l 1
 553 529 l 1
 496 482 l 1
 409 586 l 1
 408 572 407 559 407 545 c 0
 407 326 566 165 786 165 c 0
 800 165 814 166 828 167 c 1
 724 254 l 1
 771 311 l 1
 964 149 l 1
 802 -44 l 1
 746 4 l 1
 820 92 l 1
 809 91 797 91 786 91 c 0
EndSplineSet
EndChar

StartChar: sym076
Encoding: 170 -1 170
Width: 1084
Flags: HW
HStem: 91 74<264 427.669>
VStem: 677 74<417.252 578>
LayerCount: 2
Fore
SplineSet
751 544 m 0
 751 282 555 91 298 91 c 0
 287 91 275 91 264 92 c 1
 338 4 l 1
 281 -44 l 1
 119 149 l 1
 312 311 l 1
 360 254 l 1
 256 167 l 1
 270 166 283 165 297 165 c 0
 515 165 677 325 677 544 c 0
 677 558 676 572 675 586 c 1
 587 482 l 1
 531 529 l 1
 693 722 l 1
 886 560 l 1
 838 504 l 1
 750 578 l 1
 751 567 751 555 751 544 c 0
EndSplineSet
EndChar

StartChar: sym075
Encoding: 171 -1 171
Width: 1084
Flags: HW
HStem: 435 74<264 427.669>
VStem: 677 74<22 182.748>
LayerCount: 2
Fore
SplineSet
298 509 m 0
 555 509 751 318 751 56 c 0
 751 45 751 33 750 22 c 1
 838 96 l 1
 886 40 l 1
 693 -122 l 1
 531 71 l 1
 587 118 l 1
 675 14 l 1
 676 28 677 42 677 56 c 0
 677 275 515 435 297 435 c 0
 283 435 270 434 256 433 c 1
 360 346 l 1
 312 289 l 1
 119 451 l 1
 281 644 l 1
 338 596 l 1
 264 508 l 1
 275 509 287 509 298 509 c 0
EndSplineSet
EndChar

StartChar: sym077
Encoding: 172 -1 172
Width: 930
Flags: HW
HStem: 263 74<164 840>
VStem: 90 74<111 263 337 489>
LayerCount: 2
Fore
SplineSet
164 111 m 1
 90 111 l 1
 90 489 l 1
 164 489 l 1
 164 337 l 1
 840 337 l 1
 840 263 l 1
 164 263 l 1
 164 111 l 1
EndSplineSet
EndChar

StartChar: sym078
Encoding: 173 -1 173
Width: 930
Flags: HW
HStem: 263 74<90 766>
VStem: 766 74<111 263 337 489>
LayerCount: 2
Fore
SplineSet
766 489 m 1
 840 489 l 1
 840 111 l 1
 766 111 l 1
 766 263 l 1
 90 263 l 1
 90 337 l 1
 766 337 l 1
 766 489 l 1
EndSplineSet
EndChar

StartChar: sym079
Encoding: 174 -1 174
Width: 1260
Flags: HW
HStem: -176 74<500.732 757.991> 702 74<500.732 756.812>
VStem: 154 74<170.732 429.268> 1026 72<381.736 440.252>
LayerCount: 2
Fore
SplineSet
228 300 m 0
 228 79 409 -102 630 -102 c 0
 796 -102 949 2 1008 165 c 1
 873 116 l 1
 847 185 l 1
 1084 271 l 1
 1170 34 l 1
 1101 9 l 1
 1065 108 l 1
 989 -64 817 -176 630 -176 c 0
 368 -176 154 38 154 300 c 0
 154 562 368 776 630 776 c 0
 857 776 1057 612 1098 383 c 1
 1026 370 l 1
 990 565 822 702 630 702 c 0
 409 702 228 521 228 300 c 0
EndSplineSet
EndChar

StartChar: uni21BA
Encoding: 175 8634 175
Width: 1260
Flags: HW
HStem: -176 74<500.732 759.268> 696 72<489.748 548.264>
VStem: 154 74<170.732 426.812> 1032 74<170.732 427.991>
LayerCount: 2
Fore
SplineSet
630 -102 m 0
 851 -102 1032 79 1032 300 c 0
 1032 466 928 619 765 678 c 1
 814 543 l 1
 745 517 l 1
 659 754 l 1
 896 840 l 1
 921 771 l 1
 822 735 l 1
 994 659 1106 487 1106 300 c 0
 1106 38 892 -176 630 -176 c 0
 368 -176 154 38 154 300 c 0
 154 527 318 727 547 768 c 1
 560 696 l 1
 365 660 228 492 228 300 c 0
 228 79 409 -102 630 -102 c 0
EndSplineSet
EndChar

StartChar: uni27F2
Encoding: 176 10226 176
Width: 1260
Flags: HW
HStem: -176 74<503.188 759.268> 702 74<502.009 759.268>
VStem: 162 72<159.748 218.264> 1032 74<170.732 429.268>
LayerCount: 2
Fore
SplineSet
1032 300 m 0
 1032 521 851 702 630 702 c 0
 464 702 311 598 252 435 c 1
 387 484 l 1
 413 415 l 1
 176 329 l 1
 90 566 l 1
 159 591 l 1
 195 492 l 1
 271 664 443 776 630 776 c 0
 892 776 1106 562 1106 300 c 0
 1106 38 892 -176 630 -176 c 0
 403 -176 203 -12 162 217 c 1
 234 230 l 1
 270 35 438 -102 630 -102 c 0
 851 -102 1032 79 1032 300 c 0
EndSplineSet
EndChar

StartChar: sym07C
Encoding: 177 -1 177
Width: 1260
Flags: HW
HStem: -168 72<711.736 770.252> 702 74<500.732 759.268>
VStem: 154 74<172.009 429.268> 1032 74<173.188 429.268>
LayerCount: 2
Fore
SplineSet
630 702 m 0
 409 702 228 521 228 300 c 0
 228 134 332 -19 495 -78 c 1
 446 57 l 1
 515 83 l 1
 601 -154 l 1
 364 -240 l 1
 339 -171 l 1
 438 -135 l 1
 266 -59 154 113 154 300 c 0
 154 562 368 776 630 776 c 0
 892 776 1106 562 1106 300 c 0
 1106 73 942 -127 713 -168 c 1
 700 -96 l 1
 895 -60 1032 108 1032 300 c 0
 1032 521 851 702 630 702 c 0
EndSplineSet
EndChar

StartChar: uni27F3
Encoding: 178 10227 178
Width: 1260
Flags: HW
HStem: -176 74<500.732 756.812> 702 74<500.732 756.762>
VStem: 154 74<170.732 429.268> 1026 72<159.748 218.264>
LayerCount: 2
Fore
SplineSet
154 300 m 0
 154 562 368 776 630 776 c 0
 756 776 877 725 966 636 c 0
 1008 594 1041 545 1065 492 c 1
 1101 591 l 1
 1170 566 l 1
 1084 329 l 1
 847 415 l 1
 873 484 l 1
 1008 435 l 1
 988 491 956 542 914 584 c 0
 839 659 737 702 630 702 c 0
 409 702 228 521 228 300 c 0
 228 79 409 -102 630 -102 c 0
 822 -102 990 35 1026 230 c 1
 1098 217 l 1
 1057 -12 857 -176 630 -176 c 0
 368 -176 154 38 154 300 c 0
EndSplineSet
EndChar

StartChar: uni21BB
Encoding: 179 8635 179
Width: 1260
Flags: HW
HStem: -176 74<500.732 759.268> 696 72<711.736 770.252>
VStem: 154 74<170.732 426.762> 1032 74<170.732 426.812>
LayerCount: 2
Fore
SplineSet
630 -176 m 0
 368 -176 154 38 154 300 c 0
 154 426 205 547 294 636 c 0
 336 678 385 711 438 735 c 1
 339 771 l 1
 364 840 l 1
 601 754 l 1
 515 517 l 1
 446 543 l 1
 495 678 l 1
 439 658 388 626 346 584 c 0
 271 509 228 407 228 300 c 0
 228 79 409 -102 630 -102 c 0
 851 -102 1032 79 1032 300 c 0
 1032 492 895 660 700 696 c 1
 713 768 l 1
 942 727 1106 527 1106 300 c 0
 1106 38 892 -176 630 -176 c 0
EndSplineSet
EndChar

StartChar: sym07A
Encoding: 180 -1 180
Width: 1260
Flags: HW
HStem: -176 74<503.238 759.268> 702 74<503.188 759.268>
VStem: 162 72<381.736 440.252> 1032 74<170.732 429.268>
LayerCount: 2
Fore
SplineSet
1106 300 m 0
 1106 38 892 -176 630 -176 c 0
 504 -176 383 -125 294 -36 c 0
 252 6 219 55 195 108 c 1
 159 9 l 1
 90 34 l 1
 176 271 l 1
 413 185 l 1
 387 116 l 1
 252 165 l 1
 272 109 304 58 346 16 c 0
 421 -59 523 -102 630 -102 c 0
 851 -102 1032 79 1032 300 c 0
 1032 521 851 702 630 702 c 0
 438 702 270 565 234 370 c 1
 162 383 l 1
 203 612 403 776 630 776 c 0
 892 776 1106 562 1106 300 c 0
EndSplineSet
EndChar

StartChar: sym07B
Encoding: 181 -1 181
Width: 1260
Flags: HW
HStem: -168 72<489.748 548.264> 702 74<500.732 759.268>
VStem: 154 74<173.188 429.268> 1032 74<173.238 429.268>
LayerCount: 2
Fore
SplineSet
630 776 m 0
 892 776 1106 562 1106 300 c 0
 1106 174 1055 53 966 -36 c 0
 924 -78 875 -111 822 -135 c 1
 921 -171 l 1
 896 -240 l 1
 659 -154 l 1
 745 83 l 1
 814 57 l 1
 765 -78 l 1
 821 -58 872 -26 914 16 c 0
 989 91 1032 193 1032 300 c 0
 1032 521 851 702 630 702 c 0
 409 702 228 521 228 300 c 0
 228 108 365 -60 560 -96 c 1
 547 -168 l 1
 318 -127 154 73 154 300 c 0
 154 562 368 776 630 776 c 0
EndSplineSet
EndChar

StartChar: uni21DB
Encoding: 182 8667 182
Width: 1080
Flags: HW
HStem: 144 59<90 745> 270 60<90 871> 397 59<90 745> 534 20G<731 771>
LayerCount: 2
Fore
SplineSet
1005 300 m 1
 751 46 l 1
 699 98 l 1
 745 144 l 1
 90 144 l 1
 90 203 l 1
 804 203 l 1
 871 270 l 1
 90 270 l 1
 90 330 l 1
 871 330 l 1
 804 397 l 1
 90 397 l 1
 90 456 l 1
 745 456 l 1
 699 502 l 1
 751 554 l 1
 1005 300 l 1
EndSplineSet
EndChar

StartChar: uni290A
Encoding: 183 10506 183
Width: 680
Flags: HW
HStem: 745 20G<320 360>
VStem: 184 59<-150 505> 310 59<-150 631> 437 59<-150 505>
LayerCount: 2
Fore
SplineSet
340 765 m 1
 594 511 l 1
 542 459 l 1
 496 505 l 1
 496 -150 l 1
 437 -150 l 1
 437 564 l 1
 369 632 l 1
 369 -150 l 1
 310 -150 l 1
 310 631 l 1
 243 564 l 1
 243 -150 l 1
 184 -150 l 1
 184 505 l 1
 138 459 l 1
 86 511 l 1
 340 765 l 1
EndSplineSet
EndChar

StartChar: uni21DA
Encoding: 184 8666 184
Width: 1080
Flags: HW
HStem: 144 59<335 990> 270 60<209 990> 397 59<335 990> 534 20G<309 349>
LayerCount: 2
Fore
SplineSet
75 300 m 1
 329 554 l 1
 381 502 l 1
 335 456 l 1
 990 456 l 1
 990 397 l 1
 276 397 l 1
 209 330 l 1
 990 330 l 1
 990 270 l 1
 209 270 l 1
 276 203 l 1
 990 203 l 1
 990 144 l 1
 335 144 l 1
 381 98 l 1
 329 46 l 1
 75 300 l 1
EndSplineSet
EndChar

StartChar: uni290B
Encoding: 185 10507 185
Width: 680
Flags: HW
VStem: 184 59<95 750> 310 59<-31 750> 437 59<95 750>
LayerCount: 2
Fore
SplineSet
340 -165 m 1
 86 89 l 1
 138 141 l 1
 184 95 l 1
 184 750 l 1
 243 750 l 1
 243 36 l 1
 310 -31 l 1
 310 750 l 1
 369 750 l 1
 369 -32 l 1
 437 36 l 1
 437 750 l 1
 496 750 l 1
 496 95 l 1
 542 141 l 1
 594 89 l 1
 340 -165 l 1
EndSplineSet
EndChar

StartChar: uni27F6
Encoding: 186 10230 186
Width: 1680
Flags: HW
HStem: 263 74<90 1464>
LayerCount: 2
Fore
SplineSet
1605 300 m 1
 1427 122 l 1
 1375 174 l 1
 1464 263 l 1
 90 263 l 1
 90 337 l 1
 1464 337 l 1
 1375 426 l 1
 1427 478 l 1
 1605 300 l 1
EndSplineSet
EndChar

StartChar: uni27F5
Encoding: 187 10229 187
Width: 1680
Flags: HW
HStem: 263 74<216 1590>
LayerCount: 2
Fore
SplineSet
75 300 m 1
 253 478 l 1
 305 426 l 1
 216 337 l 1
 1590 337 l 1
 1590 263 l 1
 216 263 l 1
 305 174 l 1
 253 122 l 1
 75 300 l 1
EndSplineSet
EndChar

StartChar: uni27F9
Encoding: 188 10233 188
Width: 1680
Flags: HW
HStem: 168 74<90 1368> 358 74<90 1368>
LayerCount: 2
Fore
SplineSet
1605 300 m 1
 1382 76 l 1
 1329 129 l 1
 1368 168 l 1
 90 168 l 1
 90 242 l 1
 1443 242 l 1
 1501 300 l 1
 1443 358 l 1
 90 358 l 1
 90 432 l 1
 1368 432 l 1
 1329 471 l 1
 1382 524 l 1
 1605 300 l 1
EndSplineSet
EndChar

StartChar: uni27F8
Encoding: 189 10232 189
Width: 1680
Flags: HW
HStem: 168 74<312 1590> 358 74<312 1590>
LayerCount: 2
Fore
SplineSet
75 300 m 1
 298 524 l 1
 351 471 l 1
 312 432 l 1
 1590 432 l 1
 1590 358 l 1
 237 358 l 1
 179 300 l 1
 237 242 l 1
 1590 242 l 1
 1590 168 l 1
 312 168 l 1
 351 129 l 1
 298 76 l 1
 75 300 l 1
EndSplineSet
EndChar

StartChar: uni27F7
Encoding: 190 10231 190
Width: 1680
Flags: HW
HStem: 263 74<216 1464>
LayerCount: 2
Fore
SplineSet
75 300 m 1
 253 478 l 1
 305 426 l 1
 216 337 l 1
 1464 337 l 1
 1375 426 l 1
 1427 478 l 1
 1605 300 l 1
 1427 122 l 1
 1375 174 l 1
 1464 263 l 1
 216 263 l 1
 305 174 l 1
 253 122 l 1
 75 300 l 1
EndSplineSet
EndChar

StartChar: uni27FA
Encoding: 191 10234 191
Width: 1680
Flags: HW
HStem: 168 74<312 1368> 358 74<312 1368>
LayerCount: 2
Fore
SplineSet
1443 358 m 1
 237 358 l 1
 179 300 l 1
 237 242 l 1
 1443 242 l 1
 1501 300 l 1
 1443 358 l 1
75 300 m 1
 298 524 l 1
 351 471 l 1
 312 432 l 1
 1368 432 l 1
 1329 471 l 1
 1382 524 l 1
 1605 300 l 1
 1382 76 l 1
 1329 129 l 1
 1368 168 l 1
 312 168 l 1
 351 129 l 1
 298 76 l 1
 75 300 l 1
EndSplineSet
EndChar

StartChar: uni27FC
Encoding: 192 10236 192
Width: 1680
Flags: HW
HStem: 263 74<164 1464>
VStem: 90 74<111 263 337 489>
LayerCount: 2
Fore
SplineSet
1605 300 m 1
 1427 122 l 1
 1375 174 l 1
 1464 263 l 1
 164 263 l 1
 164 111 l 1
 90 111 l 1
 90 489 l 1
 164 489 l 1
 164 337 l 1
 1464 337 l 1
 1375 426 l 1
 1427 478 l 1
 1605 300 l 1
EndSplineSet
EndChar

StartChar: uni27FB
Encoding: 193 10235 193
Width: 1680
Flags: HW
HStem: 263 74<216 1516>
VStem: 1516 74<111 263 337 489>
LayerCount: 2
Fore
SplineSet
75 300 m 1
 253 478 l 1
 305 426 l 1
 216 337 l 1
 1516 337 l 1
 1516 489 l 1
 1590 489 l 1
 1590 111 l 1
 1516 111 l 1
 1516 263 l 1
 216 263 l 1
 305 174 l 1
 253 122 l 1
 75 300 l 1
EndSplineSet
EndChar

StartChar: uni27FE
Encoding: 194 10238 194
Width: 1680
Flags: HW
HStem: 168 74<164 1368> 358 74<164 1368>
VStem: 90 74<65 168 242 358 432 535>
LayerCount: 2
Fore
SplineSet
164 358 m 1
 164 242 l 1
 1443 242 l 1
 1501 300 l 1
 1443 358 l 1
 164 358 l 1
1605 300 m 1
 1382 76 l 1
 1329 129 l 1
 1368 168 l 1
 164 168 l 1
 164 65 l 1
 90 65 l 1
 90 535 l 1
 164 535 l 1
 164 432 l 1
 1368 432 l 1
 1329 471 l 1
 1382 524 l 1
 1605 300 l 1
EndSplineSet
EndChar

StartChar: uni27FD
Encoding: 195 10237 195
Width: 1680
Flags: HW
HStem: 168 74<312 1516> 358 74<312 1516>
VStem: 1516 74<65 168 242 358 432 535>
LayerCount: 2
Fore
SplineSet
1516 242 m 1
 1516 358 l 1
 237 358 l 1
 179 300 l 1
 237 242 l 1
 1516 242 l 1
75 300 m 1
 298 524 l 1
 351 471 l 1
 312 432 l 1
 1516 432 l 1
 1516 535 l 1
 1590 535 l 1
 1590 65 l 1
 1516 65 l 1
 1516 168 l 1
 312 168 l 1
 351 129 l 1
 298 76 l 1
 75 300 l 1
EndSplineSet
EndChar

StartChar: uni27FF
Encoding: 196 10239 196
Width: 1680
Flags: HW
HStem: 187 74<417.494 498.836 815.494 896.836 1213.49 1289.53> 263 74<1352.77 1464> 339 74<211.783 299.836 616.494 697.836 1014.49 1095.84>
CounterMasks: 1 e0
LayerCount: 2
Fore
SplineSet
1255 261 m 0
 1287 261 1317 337 1387 337 c 2
 1464 337 l 1
 1375 426 l 1
 1427 478 l 1
 1605 300 l 1
 1427 122 l 1
 1375 174 l 1
 1464 263 l 1
 1387 263 l 2
 1355 263 1324 187 1255 187 c 0
 1199 187 1157 232 1125 279 c 0
 1106 306 1088 339 1056 339 c 0
 1023 339 1005 306 986 279 c 0
 954 232 913 187 857 187 c 0
 801 187 759 232 727 279 c 0
 708 306 690 339 658 339 c 0
 625 339 607 306 588 279 c 0
 556 232 515 187 459 187 c 0
 403 187 361 232 329 279 c 0
 310 306 292 339 260 339 c 0
 209 339 187 283 157 241 c 1
 97 283 l 1
 140 344 186 413 260 413 c 0
 316 413 357 368 389 321 c 0
 408 294 426 261 459 261 c 0
 491 261 509 294 528 321 c 0
 560 368 602 413 658 413 c 0
 714 413 755 368 787 321 c 0
 806 294 824 261 857 261 c 0
 889 261 907 294 926 321 c 0
 958 368 1000 413 1056 413 c 0
 1112 413 1153 368 1185 321 c 0
 1204 294 1222 261 1255 261 c 0
EndSplineSet
EndChar

StartChar: uni2B33
Encoding: 197 11059 197
Width: 1680
Flags: HW
HStem: 187 74<390.354 466.506 783.164 864.506 1181.16 1262.51> 263 74<216 327.23> 339 74<584.164 665.506 982.164 1063.51 1380.16 1468.22>
CounterMasks: 1 e0
LayerCount: 2
Fore
SplineSet
425 187 m 0
 356 187 325 263 293 263 c 2
 216 263 l 1
 305 174 l 1
 253 122 l 1
 75 300 l 1
 253 478 l 1
 305 426 l 1
 216 337 l 1
 293 337 l 2
 362 337 393 261 425 261 c 0
 458 261 476 294 495 321 c 0
 527 368 568 413 624 413 c 0
 680 413 722 368 754 321 c 0
 773 294 791 261 823 261 c 0
 856 261 874 294 893 321 c 0
 925 368 966 413 1022 413 c 0
 1078 413 1120 368 1152 321 c 0
 1171 294 1189 261 1221 261 c 0
 1254 261 1272 294 1291 321 c 0
 1323 368 1364 413 1420 413 c 0
 1494 413 1540 344 1583 283 c 1
 1523 241 l 1
 1493 283 1471 339 1420 339 c 0
 1388 339 1370 306 1351 279 c 0
 1319 232 1277 187 1221 187 c 0
 1165 187 1124 232 1092 279 c 0
 1073 306 1055 339 1022 339 c 0
 990 339 972 306 953 279 c 0
 921 232 879 187 823 187 c 0
 767 187 726 232 694 279 c 0
 675 306 657 339 624 339 c 0
 592 339 574 306 555 279 c 0
 523 232 481 187 425 187 c 0
EndSplineSet
EndChar

StartChar: uni27DD
Encoding: 198 10205 198
Width: 1680
Flags: HW
HStem: 263 74<164 1590>
VStem: 90 74<111 263 337 489>
LayerCount: 2
Fore
SplineSet
164 111 m 1
 90 111 l 1
 90 489 l 1
 164 489 l 1
 164 337 l 1
 1590 337 l 1
 1590 263 l 1
 164 263 l 1
 164 111 l 1
EndSplineSet
EndChar

StartChar: uni27DE
Encoding: 199 10206 199
Width: 1680
Flags: HW
HStem: 263 74<90 1516>
VStem: 1516 74<111 263 337 489>
LayerCount: 2
Fore
SplineSet
1516 489 m 1
 1590 489 l 1
 1590 111 l 1
 1516 111 l 1
 1516 263 l 1
 90 263 l 1
 90 337 l 1
 1516 337 l 1
 1516 489 l 1
EndSplineSet
EndChar

StartChar: uni21B0
Encoding: 200 8624 200
Width: 659
Flags: HW
HStem: 415 74<216 495>
VStem: 495 74<-41 415>
LayerCount: 2
Fore
SplineSet
75 452 m 1
 253 630 l 1
 305 578 l 1
 216 489 l 1
 569 489 l 1
 569 -41 l 1
 495 -41 l 1
 495 415 l 1
 216 415 l 1
 305 326 l 1
 253 274 l 1
 75 452 l 1
EndSplineSet
EndChar

StartChar: uni21B1
Encoding: 201 8625 201
Width: 659
Flags: HW
HStem: 415 74<164 443>
VStem: 90 74<-41 415>
LayerCount: 2
Fore
SplineSet
585 452 m 1
 406 274 l 1
 354 326 l 1
 443 415 l 1
 164 415 l 1
 164 -41 l 1
 90 -41 l 1
 90 489 l 1
 443 489 l 1
 354 578 l 1
 406 630 l 1
 585 452 l 1
EndSplineSet
EndChar

StartChar: uni21B2
Encoding: 202 8626 202
Width: 659
Flags: HW
HStem: 111 74<216 495>
VStem: 495 74<185 641>
LayerCount: 2
Fore
SplineSet
75 148 m 1
 253 326 l 1
 305 274 l 1
 216 185 l 1
 495 185 l 1
 495 641 l 1
 569 641 l 1
 569 111 l 1
 216 111 l 1
 305 22 l 1
 253 -30 l 1
 75 148 l 1
EndSplineSet
EndChar

StartChar: uni21B3
Encoding: 203 8627 203
Width: 659
Flags: HW
HStem: 111 74<164 443>
VStem: 90 74<185 641>
LayerCount: 2
Fore
SplineSet
585 148 m 1
 406 -30 l 1
 354 22 l 1
 443 111 l 1
 90 111 l 1
 90 641 l 1
 164 641 l 1
 164 185 l 1
 443 185 l 1
 354 274 l 1
 406 326 l 1
 585 148 l 1
EndSplineSet
EndChar

StartChar: uni21AC
Encoding: 204 8620 204
Width: 930
Flags: HW
HStem: 263 74<225.078 428 502 714> 601 74<224.944 367.056>
VStem: 90 74<397.944 540.056> 428 74<-75 263 337 539.922>
LayerCount: 2
Fore
SplineSet
428 337 m 1
 428 469 l 2
 428 542 369 601 296 601 c 0
 223 601 164 542 164 469 c 0
 164 396 223 337 296 337 c 2
 428 337 l 1
855 300 m 1
 677 122 l 1
 625 174 l 1
 714 263 l 1
 502 263 l 1
 502 -75 l 1
 428 -75 l 1
 428 263 l 1
 296 263 l 2
 182 263 90 355 90 469 c 0
 90 583 182 675 296 675 c 0
 410 675 502 583 502 469 c 2
 502 337 l 1
 714 337 l 1
 625 426 l 1
 677 478 l 1
 855 300 l 1
EndSplineSet
EndChar

StartChar: uni21AB
Encoding: 205 8619 205
Width: 930
Flags: HW
HStem: 263 74<216 428 502 704.922> 601 74<562.944 705.056>
VStem: 428 74<-75 263 337 539.922> 766 74<397.944 540.056>
LayerCount: 2
Fore
SplineSet
502 337 m 1
 634 337 l 2
 707 337 766 396 766 469 c 0
 766 542 707 601 634 601 c 0
 561 601 502 542 502 469 c 2
 502 337 l 1
75 300 m 1
 253 478 l 1
 305 426 l 1
 216 337 l 1
 428 337 l 1
 428 469 l 2
 428 583 520 675 634 675 c 0
 748 675 840 583 840 469 c 0
 840 355 748 263 634 263 c 2
 502 263 l 1
 502 -75 l 1
 428 -75 l 1
 428 263 l 1
 216 263 l 1
 305 174 l 1
 253 122 l 1
 75 300 l 1
EndSplineSet
EndChar

StartChar: uni22A2
Encoding: 224 8866 206
Width: 840
Flags: HW
HStem: 0 21G<90 164> 317 74<164 750> 687 20G<90 164>
VStem: 90 74<0 317 391 707>
LayerCount: 2
Fore
SplineSet
164 0 m 1
 90 0 l 1
 90 707 l 1
 164 707 l 1
 164 391 l 1
 750 391 l 1
 750 317 l 1
 164 317 l 1
 164 0 l 1
EndSplineSet
EndChar

StartChar: uni22A5
Encoding: 225 8869 207
Width: 840
Flags: HW
HStem: 0 74<90 383 457 750> 687 20G<383 457>
VStem: 383 74<74 707>
LayerCount: 2
Fore
SplineSet
750 74 m 1
 750 0 l 1
 90 0 l 1
 90 74 l 1
 383 74 l 1
 383 707 l 1
 457 707 l 1
 457 74 l 1
 750 74 l 1
EndSplineSet
EndChar

StartChar: uni22A3
Encoding: 226 8867 208
Width: 840
Flags: HW
HStem: 0 21G<676 750> 317 74<90 676> 687 20G<676 750>
VStem: 676 74<0 317 391 707>
LayerCount: 2
Fore
SplineSet
676 707 m 1
 750 707 l 1
 750 0 l 1
 676 0 l 1
 676 317 l 1
 90 317 l 1
 90 391 l 1
 676 391 l 1
 676 707 l 1
EndSplineSet
EndChar

StartChar: uni22A4
Encoding: 227 8868 209
Width: 840
Flags: HW
HStem: 0 21G<383 457> 633 74<90 383 457 750>
VStem: 383 74<0 633>
LayerCount: 2
Fore
SplineSet
90 633 m 1
 90 707 l 1
 750 707 l 1
 750 633 l 1
 457 633 l 1
 457 0 l 1
 383 0 l 1
 383 633 l 1
 90 633 l 1
EndSplineSet
EndChar

StartChar: uni22A6
Encoding: 228 8870 210
Width: 642
Flags: HW
HStem: 0 21G<90 164> 317 74<164 552> 687 20G<90 164>
VStem: 90 74<0 317 391 707>
LayerCount: 2
Fore
SplineSet
164 0 m 1
 90 0 l 1
 90 707 l 1
 164 707 l 1
 164 391 l 1
 552 391 l 1
 552 317 l 1
 164 317 l 1
 164 0 l 1
EndSplineSet
EndChar

StartChar: uni2AE0
Encoding: 229 10976 211
Width: 840
Flags: HW
HStem: 0 74<90 383 457 750>
VStem: 383 74<74 495>
LayerCount: 2
Fore
SplineSet
750 74 m 1
 750 0 l 1
 90 0 l 1
 90 74 l 1
 383 74 l 1
 383 495 l 1
 457 495 l 1
 457 74 l 1
 750 74 l 1
EndSplineSet
EndChar

StartChar: uni2ADE
Encoding: 230 10974 212
Width: 642
Flags: HW
HStem: 0 21G<478 552> 317 74<90 478> 687 20G<478 552>
VStem: 478 74<0 317 391 707>
LayerCount: 2
Fore
SplineSet
478 707 m 1
 552 707 l 1
 552 0 l 1
 478 0 l 1
 478 317 l 1
 90 317 l 1
 90 391 l 1
 478 391 l 1
 478 707 l 1
EndSplineSet
EndChar

StartChar: uni2ADF
Encoding: 231 10975 213
Width: 840
Flags: HW
HStem: 0 21G<383 457> 421 74<90 383 457 750>
VStem: 383 74<0 421>
LayerCount: 2
Fore
SplineSet
90 421 m 1
 90 495 l 1
 750 495 l 1
 750 421 l 1
 457 421 l 1
 457 0 l 1
 383 0 l 1
 383 421 l 1
 90 421 l 1
EndSplineSet
EndChar

StartChar: uni22A8
Encoding: 232 8872 214
Width: 840
Flags: HW
HStem: 0 21G<90 164> 222 74<164 750> 411 75<164 750> 687 20G<90 164>
VStem: 90 74<0 222 296 411 486 707>
LayerCount: 2
Fore
SplineSet
164 0 m 1
 90 0 l 1
 90 707 l 1
 164 707 l 1
 164 486 l 1
 750 486 l 1
 750 411 l 1
 164 411 l 1
 164 296 l 1
 750 296 l 1
 750 222 l 1
 164 222 l 1
 164 0 l 1
EndSplineSet
EndChar

StartChar: uni2AEB
Encoding: 233 10987 215
Width: 840
Flags: HW
HStem: 0 74<90 288 362 478 552 750> 687 20G<288 362 478 552>
VStem: 288 74<74 707> 478 74<74 707>
LayerCount: 2
Fore
SplineSet
750 74 m 1
 750 0 l 1
 90 0 l 1
 90 74 l 1
 288 74 l 1
 288 707 l 1
 362 707 l 1
 362 74 l 1
 478 74 l 1
 478 707 l 1
 552 707 l 1
 552 74 l 1
 750 74 l 1
EndSplineSet
EndChar

StartChar: uni2AE4
Encoding: 234 10980 216
Width: 840
Flags: HW
HStem: 0 21G<676 750> 222 74<90 676> 412 74<90 676> 687 20G<676 750>
VStem: 676 74<0 222 296 412 486 707>
LayerCount: 2
Fore
SplineSet
676 707 m 1
 750 707 l 1
 750 0 l 1
 676 0 l 1
 676 222 l 1
 90 222 l 1
 90 296 l 1
 676 296 l 1
 676 412 l 1
 90 412 l 1
 90 486 l 1
 676 486 l 1
 676 707 l 1
EndSplineSet
EndChar

StartChar: uni2AEA
Encoding: 235 10986 217
Width: 840
Flags: HW
HStem: 0 21G<288 362 478 552> 633 74<90 288 362 478 552 750>
VStem: 288 74<0 633> 478 74<0 633>
LayerCount: 2
Fore
SplineSet
90 633 m 1
 90 707 l 1
 750 707 l 1
 750 633 l 1
 552 633 l 1
 552 0 l 1
 478 0 l 1
 478 633 l 1
 362 633 l 1
 362 0 l 1
 288 0 l 1
 288 633 l 1
 90 633 l 1
EndSplineSet
EndChar

StartChar: uni22A7
Encoding: 236 8871 218
Width: 642
Flags: HW
HStem: 0 21G<90 164> 222 74<164 552> 411 75<164 552> 687 20G<90 164>
VStem: 90 74<0 222 296 411 486 707>
LayerCount: 2
Fore
SplineSet
164 0 m 1
 90 0 l 1
 90 707 l 1
 164 707 l 1
 164 486 l 1
 552 486 l 1
 552 411 l 1
 164 411 l 1
 164 296 l 1
 552 296 l 1
 552 222 l 1
 164 222 l 1
 164 0 l 1
EndSplineSet
EndChar

StartChar: sym07E
Encoding: 237 -1 219
Width: 840
Flags: HW
HStem: 0 74<90 288 362 478 552 750>
VStem: 288 74<74 495> 478 74<74 495>
LayerCount: 2
Fore
SplineSet
750 74 m 1
 750 0 l 1
 90 0 l 1
 90 74 l 1
 288 74 l 1
 288 495 l 1
 362 495 l 1
 362 74 l 1
 478 74 l 1
 478 495 l 1
 552 495 l 1
 552 74 l 1
 750 74 l 1
EndSplineSet
EndChar

StartChar: sym07D
Encoding: 238 -1 220
Width: 642
Flags: HW
HStem: 0 21G<478 552> 222 74<90 478> 412 74<90 478> 687 20G<478 552>
VStem: 478 74<0 222 296 412 486 707>
LayerCount: 2
Fore
SplineSet
478 707 m 1
 552 707 l 1
 552 0 l 1
 478 0 l 1
 478 222 l 1
 90 222 l 1
 90 296 l 1
 478 296 l 1
 478 412 l 1
 90 412 l 1
 90 486 l 1
 478 486 l 1
 478 707 l 1
EndSplineSet
EndChar

StartChar: sym07F
Encoding: 239 -1 221
Width: 840
Flags: HW
HStem: 0 21G<288 362 478 552> 421 74<90 288 362 478 552 750>
VStem: 288 74<0 421> 478 74<0 421>
LayerCount: 2
Fore
SplineSet
90 421 m 1
 90 495 l 1
 750 495 l 1
 750 421 l 1
 552 421 l 1
 552 0 l 1
 478 0 l 1
 478 421 l 1
 362 421 l 1
 362 0 l 1
 288 0 l 1
 288 421 l 1
 90 421 l 1
EndSplineSet
EndChar

StartChar: uni22A9
Encoding: 240 8873 222
Width: 1038
Flags: HW
HStem: 0 21G<90 164 288 362> 317 74<362 948> 687 20G<90 164 288 362>
VStem: 90 74<0 707> 288 74<0 317 391 707>
LayerCount: 2
Fore
SplineSet
164 0 m 1
 90 0 l 1
 90 707 l 1
 164 707 l 1
 164 0 l 1
362 0 m 1
 288 0 l 1
 288 707 l 1
 362 707 l 1
 362 391 l 1
 948 391 l 1
 948 317 l 1
 362 317 l 1
 362 0 l 1
EndSplineSet
EndChar

StartChar: uni234A
Encoding: 241 9034 223
Width: 840
Flags: HW
HStem: -106 74<90 750> 92 74<90 383 457 750>
VStem: 383 74<166 813>
LayerCount: 2
Fore
SplineSet
750 -32 m 1
 750 -106 l 1
 90 -106 l 1
 90 -32 l 1
 750 -32 l 1
750 166 m 1
 750 92 l 1
 90 92 l 1
 90 166 l 1
 383 166 l 1
 383 813 l 1
 457 813 l 1
 457 166 l 1
 750 166 l 1
EndSplineSet
EndChar

StartChar: uni2AE3
Encoding: 242 10979 224
Width: 1038
Flags: HW
HStem: 0 21G<676 750 874 948> 317 74<90 676> 687 20G<676 750 874 948>
VStem: 676 74<0 317 391 707> 874 74<0 707>
LayerCount: 2
Fore
SplineSet
874 707 m 1
 948 707 l 1
 948 0 l 1
 874 0 l 1
 874 707 l 1
676 707 m 1
 750 707 l 1
 750 0 l 1
 676 0 l 1
 676 317 l 1
 90 317 l 1
 90 391 l 1
 676 391 l 1
 676 707 l 1
EndSplineSet
EndChar

StartChar: uni2351
Encoding: 243 9041 225
Width: 840
Flags: HW
HStem: 541 74<90 383 457 750> 739 74<90 750>
VStem: 383 74<-106 541>
LayerCount: 2
Fore
SplineSet
90 739 m 1
 90 813 l 1
 750 813 l 1
 750 739 l 1
 90 739 l 1
90 541 m 1
 90 615 l 1
 750 615 l 1
 750 541 l 1
 457 541 l 1
 457 -106 l 1
 383 -106 l 1
 383 541 l 1
 90 541 l 1
EndSplineSet
EndChar

StartChar: uni22A9.alt
Encoding: 244 -1 226
Width: 840
Flags: HW
HStem: 0 21G<90 164 288 362> 317 74<362 750> 687 20G<90 164 288 362>
VStem: 90 74<0 707> 288 74<0 317 391 707>
LayerCount: 2
Fore
SplineSet
164 0 m 1
 90 0 l 1
 90 707 l 1
 164 707 l 1
 164 0 l 1
362 0 m 1
 288 0 l 1
 288 707 l 1
 362 707 l 1
 362 391 l 1
 750 391 l 1
 750 317 l 1
 362 317 l 1
 362 0 l 1
EndSplineSet
EndChar

StartChar: uni2AE8
Encoding: 245 10984 227
Width: 840
Flags: HW
HStem: 0 74<90 750> 198 74<90 383 457 750> 687 20G<383 457>
VStem: 383 74<272 707>
LayerCount: 2
Fore
SplineSet
750 74 m 1
 750 0 l 1
 90 0 l 1
 90 74 l 1
 750 74 l 1
750 272 m 1
 750 198 l 1
 90 198 l 1
 90 272 l 1
 383 272 l 1
 383 707 l 1
 457 707 l 1
 457 272 l 1
 750 272 l 1
EndSplineSet
EndChar

StartChar: uni2AE3.alt
Encoding: 246 -1 228
Width: 840
Flags: HW
HStem: 0 21G<478 552 676 750> 317 74<90 478> 687 20G<478 552 676 750>
VStem: 478 74<0 317 391 707> 676 74<0 707>
LayerCount: 2
Fore
SplineSet
676 707 m 1
 750 707 l 1
 750 0 l 1
 676 0 l 1
 676 707 l 1
478 707 m 1
 552 707 l 1
 552 0 l 1
 478 0 l 1
 478 317 l 1
 90 317 l 1
 90 391 l 1
 478 391 l 1
 478 707 l 1
EndSplineSet
EndChar

StartChar: uni2AE7
Encoding: 247 10983 229
Width: 840
Flags: HW
HStem: 0 21G<383 457> 435 74<90 383 457 750> 633 74<90 750>
VStem: 383 74<0 435>
LayerCount: 2
Fore
SplineSet
90 633 m 1
 90 707 l 1
 750 707 l 1
 750 633 l 1
 90 633 l 1
90 435 m 1
 90 509 l 1
 750 509 l 1
 750 435 l 1
 457 435 l 1
 457 0 l 1
 383 0 l 1
 383 435 l 1
 90 435 l 1
EndSplineSet
EndChar

StartChar: uni22AB
Encoding: 248 8875 230
Width: 1038
Flags: HW
HStem: 0 21G<90 164 288 362> 222 74<362 948> 411 75<362 948> 687 20G<90 164 288 362>
VStem: 90 74<0 707> 288 74<0 222 296 411 486 707>
LayerCount: 2
Fore
SplineSet
164 0 m 1
 90 0 l 1
 90 707 l 1
 164 707 l 1
 164 0 l 1
362 0 m 1
 288 0 l 1
 288 707 l 1
 362 707 l 1
 362 486 l 1
 948 486 l 1
 948 411 l 1
 362 411 l 1
 362 296 l 1
 948 296 l 1
 948 222 l 1
 362 222 l 1
 362 0 l 1
EndSplineSet
EndChar

StartChar: sym080
Encoding: 249 -1 231
Width: 840
Flags: HW
HStem: -106 74<90 750> 92 74<90 288 362 478 552 750>
VStem: 288 74<166 813> 478 74<166 813>
LayerCount: 2
Fore
SplineSet
750 -32 m 1
 750 -106 l 1
 90 -106 l 1
 90 -32 l 1
 750 -32 l 1
750 166 m 1
 750 92 l 1
 90 92 l 1
 90 166 l 1
 288 166 l 1
 288 813 l 1
 362 813 l 1
 362 166 l 1
 478 166 l 1
 478 813 l 1
 552 813 l 1
 552 166 l 1
 750 166 l 1
EndSplineSet
EndChar

StartChar: uni2AE5
Encoding: 250 10981 232
Width: 1038
Flags: HW
HStem: 0 21G<676 750 874 948> 222 74<90 676> 412 74<90 676> 687 20G<676 750 874 948>
VStem: 676 74<0 222 296 412 486 707> 874 74<0 707>
LayerCount: 2
Fore
SplineSet
874 707 m 1
 948 707 l 1
 948 0 l 1
 874 0 l 1
 874 707 l 1
676 707 m 1
 750 707 l 1
 750 0 l 1
 676 0 l 1
 676 222 l 1
 90 222 l 1
 90 296 l 1
 676 296 l 1
 676 412 l 1
 90 412 l 1
 90 486 l 1
 676 486 l 1
 676 707 l 1
EndSplineSet
EndChar

StartChar: sym081
Encoding: 251 -1 233
Width: 840
Flags: HW
HStem: 541 74<90 288 362 478 552 750> 739 74<90 750>
VStem: 288 74<-106 541> 478 74<-106 541>
LayerCount: 2
Fore
SplineSet
90 739 m 1
 90 813 l 1
 750 813 l 1
 750 739 l 1
 90 739 l 1
90 541 m 1
 90 615 l 1
 750 615 l 1
 750 541 l 1
 552 541 l 1
 552 -106 l 1
 478 -106 l 1
 478 541 l 1
 362 541 l 1
 362 -106 l 1
 288 -106 l 1
 288 541 l 1
 90 541 l 1
EndSplineSet
EndChar

StartChar: uni22AA
Encoding: 252 8874 234
Width: 1038
Flags: HW
HStem: 0 21G<90 164 288 362 486 560> 317 74<560 948> 687 20G<90 164 288 362 486 560>
VStem: 90 74<0 707> 288 74<0 707> 486 74<0 317 391 707>
CounterMasks: 1 1c
LayerCount: 2
Fore
SplineSet
164 0 m 1
 90 0 l 1
 90 707 l 1
 164 707 l 1
 164 0 l 1
362 0 m 1
 288 0 l 1
 288 707 l 1
 362 707 l 1
 362 0 l 1
560 0 m 1
 486 0 l 1
 486 707 l 1
 560 707 l 1
 560 391 l 1
 948 391 l 1
 948 317 l 1
 560 317 l 1
 560 0 l 1
EndSplineSet
EndChar

StartChar: sym082
Encoding: 253 -1 235
Width: 1038
Flags: HW
HStem: 0 21G<478 552 676 750 874 948> 317 74<90 478> 687 20G<478 552 676 750 874 948>
VStem: 478 74<0 317 391 707> 676 74<0 707> 874 74<0 707>
CounterMasks: 1 1c
LayerCount: 2
Fore
SplineSet
874 707 m 1
 948 707 l 1
 948 0 l 1
 874 0 l 1
 874 707 l 1
676 707 m 1
 750 707 l 1
 750 0 l 1
 676 0 l 1
 676 707 l 1
478 707 m 1
 552 707 l 1
 552 0 l 1
 478 0 l 1
 478 317 l 1
 90 317 l 1
 90 391 l 1
 478 391 l 1
 478 707 l 1
EndSplineSet
EndChar

StartChar: uni2AE2
Encoding: 254 10978 236
Width: 840
Flags: HW
HStem: 0 21G<90 164> 127 74<164 750> 317 74<164 750> 506 75<164 750> 687 20G<90 164>
VStem: 90 74<0 127 201 317 391 506 581 707>
LayerCount: 2
Fore
SplineSet
164 0 m 1
 90 0 l 1
 90 707 l 1
 164 707 l 1
 164 581 l 1
 750 581 l 1
 750 506 l 1
 164 506 l 1
 164 391 l 1
 750 391 l 1
 750 317 l 1
 164 317 l 1
 164 201 l 1
 750 201 l 1
 750 127 l 1
 164 127 l 1
 164 0 l 1
EndSplineSet
EndChar

StartChar: sym083
Encoding: 255 -1 237
Width: 840
Flags: HW
HStem: 0 21G<676 750> 127 74<90 676> 317 74<90 676> 506 75<90 676> 687 20G<676 750>
VStem: 676 74<0 127 201 317 391 506 581 707>
LayerCount: 2
Fore
SplineSet
676 707 m 1
 750 707 l 1
 750 0 l 1
 676 0 l 1
 676 127 l 1
 90 127 l 1
 90 201 l 1
 676 201 l 1
 676 317 l 1
 90 317 l 1
 90 391 l 1
 676 391 l 1
 676 506 l 1
 90 506 l 1
 90 581 l 1
 676 581 l 1
 676 707 l 1
EndSplineSet
EndChar
